<?xml version="1.0" encoding="UTF-8" standalone="no"?>
<!DOCTYPE svg PUBLIC "-//W3C//DTD SVG 1.1//EN" "http://www.w3.org/Graphics/SVG/1.1/DTD/svg11.dtd">
<svg width="100%" height="100%" viewBox="0 0 40 200" version="1.1" xmlns="http://www.w3.org/2000/svg" xmlns:xlink="http://www.w3.org/1999/xlink" xml:space="preserve" xmlns:serif="http://www.serif.com/" style="fill-rule:evenodd;clip-rule:evenodd;stroke-linejoin:round;stroke-miterlimit:1.41421;">
    <g transform="matrix(1,0,0,1,-45.1364,21.964)">
        <g transform="matrix(2.06667,0,0,2.06667,23.7276,-7.96402)">
            <path d="M20.571,12.621L21.149,12.621L21.149,19.72C21.721,19.897 22.141,20.229 22.141,20.715C22.141,21.052 21.939,21.315 21.625,21.503L21.625,27.886C22.535,28.017 23.505,28.266 24.504,28.687L24.504,30.234L25.883,32.214L25.883,35.144L25.883,35.145L25.883,35.152C25.883,35.54 25.613,35.906 25.146,36.225L25.145,36.226L25.144,36.226C24.485,36.675 23.434,37.032 22.192,37.229C22.786,51.043 24.184,80.441 25.68,90L20.598,90L19.544,90L14.462,90C15.957,80.446 17.354,51.076 17.949,37.252C15.794,36.93 14.262,36.113 14.262,35.153L14.258,35.148L14.258,32.218L15.415,30.668L15.415,28.687C15.415,28.687 16.627,28.088 18.512,27.858L18.512,21.498C18.202,21.31 18.004,21.049 18.004,20.715C18.004,20.228 18.424,19.897 18.997,19.72L18.997,12.621L19.571,12.621L19.571,0L20.571,0L20.571,12.621Z" style="fill-rule:nonzero;"/>
        </g>
        <g class="red-light" transform="matrix(0.425289,0,0,0.0255591,56.6944,172.846)">
            <rect x="16.68" y="85.672" width="7.054" height="117.375" style="fill:rgb(252,27,52);"/>
        </g>
        <g class="red-light" transform="matrix(0.425289,0,0,0.0255591,56.6944,169.793)">
            <rect x="16.68" y="85.672" width="7.054" height="117.375" style="fill:rgb(252,27,52);"/>
        </g>
        <g class="red-light" transform="matrix(0.425289,0,0,0.0255591,56.6944,166.74)">
            <rect x="16.68" y="85.672" width="7.054" height="117.375" style="fill:rgb(252,27,52);"/>
        </g>
        <g class="red-light" transform="matrix(0.425289,0,0,0.0255591,56.6944,163.687)">
            <rect x="16.68" y="85.672" width="7.054" height="117.375" style="fill:rgb(252,27,52);"/>
        </g>
        <g class="red-light" transform="matrix(0.425289,0,0,0.0255591,56.6944,160.634)">
            <rect x="16.68" y="85.672" width="7.054" height="117.375" style="fill:rgb(252,27,52);"/>
        </g>
        <g class="red-light" transform="matrix(0.425289,0,0,0.0255591,56.6944,157.581)">
            <rect x="16.68" y="85.672" width="7.054" height="117.375" style="fill:rgb(252,27,52);"/>
        </g>
        <g class="red-light" transform="matrix(0.425289,0,0,0.0255591,56.6944,154.528)">
            <rect x="16.68" y="85.672" width="7.054" height="117.375" style="fill:rgb(252,27,52);"/>
        </g>
        <g class="red-light" transform="matrix(0.425289,0,0,0.0255591,56.6944,151.475)">
            <rect x="16.68" y="85.672" width="7.054" height="117.375" style="fill:rgb(252,27,52);"/>
        </g>
        <g class="red-light" transform="matrix(0.425289,0,0,0.0255591,56.6944,148.421)">
            <rect x="16.68" y="85.672" width="7.054" height="117.375" style="fill:rgb(252,27,52);"/>
        </g>
        <g class="red-light" transform="matrix(0.425289,0,0,0.0255591,56.6944,145.368)">
            <rect x="16.68" y="85.672" width="7.054" height="117.375" style="fill:rgb(252,27,52);"/>
        </g>
        <g class="red-light" transform="matrix(0.425289,0,0,0.0255591,56.6944,142.315)">
            <rect x="16.68" y="85.672" width="7.054" height="117.375" style="fill:rgb(252,27,52);"/>
        </g>
        <g class="red-light" transform="matrix(0.425289,0,0,0.0255591,56.6944,139.262)">
            <rect x="16.68" y="85.672" width="7.054" height="117.375" style="fill:rgb(252,27,52);"/>
        </g>
        <g class="red-light" transform="matrix(0.425289,0,0,0.0255591,56.6944,136.209)">
            <rect x="16.68" y="85.672" width="7.054" height="117.375" style="fill:rgb(252,27,52);"/>
        </g>
        <g class="red-light" transform="matrix(0.425289,0,0,0.0255591,56.6944,133.156)">
            <rect x="16.68" y="85.672" width="7.054" height="117.375" style="fill:rgb(252,27,52);"/>
        </g>
        <g class="red-light" transform="matrix(0.425289,0,0,0.0255591,56.6944,130.103)">
            <rect x="16.68" y="85.672" width="7.054" height="117.375" style="fill:rgb(252,27,52);"/>
        </g>
        <g class="red-light" transform="matrix(0.425289,0,0,0.0255591,56.6944,127.05)">
            <rect x="16.68" y="85.672" width="7.054" height="117.375" style="fill:rgb(252,27,52);"/>
        </g>
        <g class="red-light" transform="matrix(0.425289,0,0,0.0255591,56.6944,123.997)">
            <rect x="16.68" y="85.672" width="7.054" height="117.375" style="fill:rgb(252,27,52);"/>
        </g>
        <g class="red-light" transform="matrix(0.425289,0,0,0.0255591,56.6944,120.943)">
            <rect x="16.68" y="85.672" width="7.054" height="117.375" style="fill:rgb(252,27,52);"/>
        </g>
        <g class="red-light" transform="matrix(0.425289,0,0,0.0255591,56.6944,117.89)">
            <rect x="16.68" y="85.672" width="7.054" height="117.375" style="fill:rgb(252,27,52);"/>
        </g>
        <g class="red-light" transform="matrix(0.425289,0,0,0.0255591,56.6944,114.837)">
            <rect x="16.68" y="85.672" width="7.054" height="117.375" style="fill:rgb(252,27,52);"/>
        </g>
        <g class="red-light" transform="matrix(0.425289,0,0,0.0255591,56.6944,111.784)">
            <rect x="16.68" y="85.672" width="7.054" height="117.375" style="fill:rgb(252,27,52);"/>
        </g>
        <g class="red-light" transform="matrix(0.425289,0,0,0.0255591,56.6944,108.731)">
            <rect x="16.68" y="85.672" width="7.054" height="117.375" style="fill:rgb(252,27,52);"/>
        </g>
        <g class="red-light" transform="matrix(0.425289,0,0,0.0255591,56.6944,105.678)">
            <rect x="16.68" y="85.672" width="7.054" height="117.375" style="fill:rgb(252,27,52);"/>
        </g>
        <g class="red-light" transform="matrix(0.425289,0,0,0.0255591,56.6944,102.625)">
            <rect x="16.68" y="85.672" width="7.054" height="117.375" style="fill:rgb(252,27,52);"/>
        </g>
        <g class="red-light" transform="matrix(0.425289,0,0,0.0255591,56.6944,99.5717)">
            <rect x="16.68" y="85.672" width="7.054" height="117.375" style="fill:rgb(252,27,52);"/>
        </g>
        <g class="red-light" transform="matrix(0.425289,0,0,0.0255591,56.6944,96.5186)">
            <rect x="16.68" y="85.672" width="7.054" height="117.375" style="fill:rgb(252,27,52);"/>
        </g>
        <g class="red-light" transform="matrix(0.425289,0,0,0.0255591,56.6944,93.4655)">
            <rect x="16.68" y="85.672" width="7.054" height="117.375" style="fill:rgb(252,27,52);"/>
        </g>
        <g class="red-light" transform="matrix(0.425289,0,0,0.0255591,56.6944,90.4124)">
            <rect x="16.68" y="85.672" width="7.054" height="117.375" style="fill:rgb(252,27,52);"/>
        </g>
        <g class="red-light" transform="matrix(0.425289,0,0,0.0255591,56.6944,87.3593)">
            <rect x="16.68" y="85.672" width="7.054" height="117.375" style="fill:rgb(252,27,52);"/>
        </g>
        <g class="red-light" transform="matrix(0.425289,0,0,0.0255591,56.6944,84.3062)">
            <rect x="16.68" y="85.672" width="7.054" height="117.375" style="fill:rgb(252,27,52);"/>
        </g>
        <g class="red-light" transform="matrix(0.425289,0,0,0.0255591,56.6944,81.2531)">
            <rect x="16.68" y="85.672" width="7.054" height="117.375" style="fill:rgb(252,27,52);"/>
        </g>
        <g class="red-light" transform="matrix(0.425289,0,0,0.0255591,56.6944,78.2)">
            <rect x="16.68" y="85.672" width="7.054" height="117.375" style="fill:rgb(252,27,52);"/>
        </g>
        <g class="red-light" transform="matrix(0.425289,0,0,0.0255591,56.6944,75.1469)">
            <rect x="16.68" y="85.672" width="7.054" height="117.375" style="fill:rgb(252,27,52);"/>
        </g>
        <g class="red-light" transform="matrix(0.425289,0,0,0.0255591,56.6944,72.0938)">
            <rect x="16.68" y="85.672" width="7.054" height="117.375" style="fill:rgb(252,27,52);"/>
        </g>
        <g class="red-light" transform="matrix(0.425289,0,0,0.0255591,56.6944,69.0407)">
            <rect x="16.68" y="85.672" width="7.054" height="117.375" style="fill:rgb(252,27,52);"/>
        </g>
        <g class="red-light" transform="matrix(0.425289,0,0,0.0255591,56.6944,65.9876)">
            <rect x="16.68" y="85.672" width="7.054" height="117.375" style="fill:rgb(252,27,52);"/>
        </g>
    </g>
</svg>
