<?xml version="1.0" encoding="UTF-8" standalone="no"?>
<!DOCTYPE svg PUBLIC "-//W3C//DTD SVG 1.1//EN" "http://www.w3.org/Graphics/SVG/1.1/DTD/svg11.dtd">
<svg width="100%" height="100%" viewBox="0 0 200 200" version="1.1" xmlns="http://www.w3.org/2000/svg" xmlns:xlink="http://www.w3.org/1999/xlink" xml:space="preserve" xmlns:serif="http://www.serif.com/" style="fill-rule:evenodd;clip-rule:evenodd;stroke-linejoin:round;stroke-miterlimit:1.41421;">
    <g transform="matrix(1.06669,0,0,1.06669,-6.46448,-5.8013)">
        <path d="M69.454,25.906C79.398,21.787 84.515,14.813 99.808,14.813C115.101,14.813 120.219,21.787 130.162,25.906C133.042,27.099 135.806,27.836 138.541,28.545C145.249,30.282 151.788,31.844 159.469,39.526C170.283,50.34 168.97,58.889 173.089,68.833C177.207,78.776 184.181,83.893 184.181,99.187C184.181,114.48 175.998,127.18 173.089,129.54C173.477,133.266 170.283,148.033 159.469,158.847C148.655,169.661 140.105,168.348 130.162,172.467C120.219,176.586 115.101,183.56 99.808,183.56C84.515,183.56 79.398,176.586 69.454,172.467C59.511,168.348 50.961,169.661 40.147,158.847C29.333,148.033 30.647,139.484 26.528,129.54C22.409,119.597 15.435,114.48 15.435,99.187C15.435,83.893 22.409,78.776 26.528,68.833C30.647,58.889 29.333,50.34 40.147,39.526C50.961,28.712 59.511,30.025 69.454,25.906ZM129.727,26.956C120.639,23.191 114.33,22.073 99.808,22.073C85.286,22.073 78.977,23.191 69.889,26.956C60.801,30.72 55.55,34.39 45.281,44.659C35.012,54.928 31.342,60.18 27.577,69.268C23.813,78.355 22.695,84.664 22.695,99.187C22.695,113.709 23.813,120.018 27.577,129.106C31.342,138.193 35.012,143.445 45.281,153.714C55.55,163.983 60.801,167.653 69.889,171.417C78.977,175.182 85.286,176.3 99.808,176.3C114.33,176.3 120.639,175.182 129.727,171.417C138.815,167.653 144.067,163.983 154.335,153.714C164.604,143.445 169.933,131.543 172.039,129.106C172.274,125.893 176.921,113.709 176.921,99.187C176.921,84.664 175.803,78.355 172.039,69.268C168.275,60.18 164.604,54.928 154.335,44.659C144.067,34.39 138.815,30.72 129.727,26.956ZM99.974,24.876C140.987,24.876 174.285,58.173 174.285,99.187C174.285,140.2 140.987,173.497 99.974,173.497C58.961,173.497 25.663,140.2 25.663,99.187C25.663,58.173 58.961,24.876 99.974,24.876ZM61.686,139.169C59.505,139.169 57.597,138.668 55.962,137.666C54.326,136.663 53.069,135.309 52.19,133.604C51.31,131.898 50.871,130.043 50.871,128.038C50.871,125.752 51.451,123.809 52.612,122.209C53.772,120.608 55.25,119.412 57.043,118.621C58.837,117.83 60.683,117.434 62.583,117.434C64.763,117.434 66.662,117.944 68.28,118.964C69.898,119.984 71.138,121.329 71.999,123C72.861,124.67 73.292,126.455 73.292,128.355C73.292,130.465 72.764,132.338 71.709,133.973C70.654,135.608 69.239,136.883 67.462,137.798C65.686,138.712 63.761,139.169 61.686,139.169ZM116.393,139.117C114.072,139.117 112.111,138.615 110.511,137.613C108.911,136.611 107.715,135.309 106.924,133.709C106.132,132.109 105.737,130.43 105.737,128.671C105.737,126.455 106.352,124.512 107.583,122.842C108.814,121.171 110.388,119.887 112.305,118.99C114.221,118.094 116.182,117.645 118.187,117.645C119.875,117.645 121.396,117.997 122.75,118.7C124.104,119.404 124.781,120.371 124.781,121.602C124.781,122.27 124.526,122.842 124.016,123.316C123.506,123.791 122.794,124.029 121.88,124.029C121.036,124.029 120.367,123.809 119.875,123.369C119.383,122.929 118.978,122.252 118.662,121.338C118.345,120.353 118.037,119.676 117.738,119.307C117.439,118.938 116.903,118.753 116.129,118.753C114.617,118.753 113.412,119.5 112.516,120.995C111.619,122.49 111.17,124.468 111.17,126.93C111.17,129.849 111.821,132.179 113.122,133.92C114.424,135.661 116.499,136.532 119.347,136.532C120.297,136.532 121.115,136.426 121.801,136.215C122.486,136.004 123.357,135.652 124.412,135.16L124.465,135.16C124.57,135.16 124.667,135.213 124.755,135.318C124.843,135.424 124.852,135.512 124.781,135.582C123.48,136.778 122.179,137.666 120.877,138.246C119.576,138.826 118.081,139.117 116.393,139.117ZM98.667,139.064C97.683,139.064 96.9,138.774 96.32,138.193C95.739,137.613 95.449,136.831 95.449,135.846C95.449,134.931 95.739,134.193 96.32,133.63C96.9,133.067 97.683,132.786 98.667,132.786C99.652,132.786 100.417,133.059 100.962,133.604C101.507,134.149 101.78,134.896 101.78,135.846C101.78,136.866 101.507,137.657 100.962,138.22C100.417,138.783 99.652,139.064 98.667,139.064ZM148.468,135.635C148.609,135.635 148.706,135.714 148.759,135.872C148.811,136.03 148.767,136.145 148.627,136.215L143.193,138.8C143.052,138.87 142.876,138.906 142.665,138.906C142.103,138.906 141.566,138.607 141.056,138.009C140.546,137.411 140.186,136.602 139.975,135.582L137.706,137.165C136.897,137.763 136.141,138.193 135.438,138.457C134.734,138.721 133.943,138.853 133.064,138.853C131.552,138.853 130.408,138.519 129.635,137.85C128.861,137.182 128.474,136.25 128.474,135.054C128.474,134.105 128.703,133.34 129.16,132.76C129.617,132.179 130.189,131.722 130.874,131.388C131.56,131.054 132.519,130.676 133.75,130.254L135.069,129.779L139.817,128.038L139.817,125.031C139.817,122.78 139.632,121.145 139.263,120.125C138.893,119.105 138.269,118.595 137.39,118.595C135.526,118.595 134.471,120.037 134.224,122.921C134.119,123.976 133.811,124.732 133.301,125.189C132.791,125.646 132.079,125.875 131.165,125.875C130.285,125.875 129.644,125.69 129.239,125.321C128.835,124.952 128.632,124.468 128.632,123.87C128.632,122.815 129.248,121.804 130.479,120.837C131.71,119.87 133.196,119.087 134.937,118.489C136.678,117.891 138.216,117.592 139.553,117.592C141.1,117.592 142.358,118.076 143.325,119.043C144.292,120.01 144.776,121.479 144.776,123.448L144.776,132.786C144.776,133.806 144.96,134.597 145.329,135.16C145.699,135.723 146.218,136.004 146.886,136.004C147.378,136.004 147.888,135.881 148.416,135.635L148.468,135.635ZM75.666,121.866C76.756,121.373 77.6,121.127 78.198,121.127C78.761,121.127 79.174,121.382 79.438,121.892C79.702,122.402 79.834,123.202 79.834,124.292L79.834,134.21C79.834,135.617 79.64,136.576 79.253,137.086C78.866,137.596 78.128,137.85 77.038,137.85C76.932,137.85 76.879,137.956 76.879,138.167C76.879,138.378 76.932,138.484 77.038,138.484C77.952,138.484 78.673,138.466 79.201,138.431L82.313,138.378L86.586,138.431C87.29,138.466 88.257,138.484 89.488,138.484C89.629,138.484 89.699,138.378 89.699,138.167C89.699,137.956 89.629,137.85 89.488,137.85C87.694,137.85 86.463,137.596 85.795,137.086C85.127,136.576 84.793,135.617 84.793,134.21L84.793,122.868C85.637,122.024 86.261,121.47 86.665,121.206C87.07,120.942 87.448,120.81 87.8,120.81C88.116,120.81 88.389,120.89 88.617,121.048C88.846,121.206 89.119,121.461 89.435,121.813C89.787,122.235 90.13,122.551 90.464,122.762C90.798,122.973 91.229,123.079 91.756,123.079C92.495,123.079 93.093,122.842 93.55,122.367C94.007,121.892 94.236,121.285 94.236,120.547C94.236,119.738 93.858,119.043 93.102,118.463C92.345,117.883 91.563,117.592 90.754,117.592C90.051,117.592 89.233,117.891 88.301,118.489C87.369,119.087 86.182,120.125 84.74,121.602C84.67,120.371 84.467,119.395 84.133,118.674C83.799,117.953 83.439,117.592 83.052,117.592C83.017,117.592 82.893,117.628 82.682,117.698L75.349,121.285C75.279,121.32 75.27,121.426 75.323,121.602C75.376,121.778 75.455,121.866 75.56,121.866L75.666,121.866ZM63.268,138.062C64.64,138.062 65.686,137.384 66.407,136.03C67.128,134.676 67.489,132.733 67.489,130.201C67.489,127.739 67.172,125.629 66.539,123.87C65.906,122.112 65.08,120.784 64.06,119.887C63.04,118.99 61.95,118.542 60.789,118.542C57.975,118.542 56.568,121.057 56.568,126.086C56.568,128.442 56.867,130.526 57.465,132.338C58.063,134.149 58.872,135.556 59.892,136.558C60.912,137.56 62.037,138.062 63.268,138.062ZM139.869,134.685C139.834,134.544 139.817,134.316 139.817,133.999L139.817,128.935L137.548,129.99C137.443,130.025 137.091,130.157 136.493,130.386C135.895,130.614 135.376,130.992 134.937,131.52C134.497,132.047 134.277,132.663 134.277,133.366C134.277,134.21 134.55,134.87 135.095,135.345C135.64,135.819 136.264,136.057 136.968,136.057C137.53,136.057 138.111,135.863 138.709,135.476L139.869,134.685ZM89.035,54.332C89.035,54.332 94.283,55.744 92.457,60.16C91.699,61.993 90.922,63.935 91.145,65.931C91.145,65.931 99.54,66.128 104.5,66.856C104.5,66.856 108.031,67.548 110.822,68.324C113.324,69.02 116.297,70.071 116.297,70.071C116.618,70.178 116.939,70.287 117.259,70.398C128.163,74.252 137.928,81.632 145.942,89.885C145.942,89.885 153.428,90.289 152.742,94.912C152.585,95.975 151.666,97.284 151.666,97.284C152.02,98.974 152.786,100.539 153.48,102.131C153.48,102.131 154.2,104.08 153.431,105.639C152.099,108.341 148.061,108.102 145.182,105.181C143.523,103.499 142.15,101.56 140.756,99.644L140.638,99.481C127.916,95.161 114.018,93.711 100.737,97.006L100.653,97.027C96.862,98.177 93.085,99.362 89.271,100.438L89.1,102.518C89.256,102.726 89.094,102.365 89.534,103.207C89.709,103.543 89.842,103.904 89.922,104.274C91.028,109.37 80.196,110.586 73.364,104.257L71.158,104.718C66.167,105.632 61.226,106.898 56.362,108.422C56.362,108.422 53.655,108.701 51.395,108.614C51.395,108.614 47.524,107.453 46.292,103.902C44.525,98.81 48.639,93.343 51.88,88.745C53.492,86.482 55.282,84.355 57.11,82.264C57.11,82.264 60.871,78.419 62.47,77.195C66.632,74.011 71.027,71.096 75.972,69.144C75.972,69.144 78.354,62.379 81.849,58.526C83.8,56.375 85.991,54.28 89.035,54.332ZM88.75,57.336C88.826,57.329 88.905,57.327 88.988,57.333C90.051,57.607 90.017,58.22 89.676,59.034L89.664,59.062C89.642,59.113 89.62,59.164 89.596,59.216C89.617,59.171 89.636,59.126 89.655,59.082L89.664,59.062L89.669,59.05L89.67,59.049L89.676,59.034L89.685,59.013L89.67,59.049L89.669,59.049L89.669,59.05C88.246,62.436 87.515,65.943 88.936,69.045L88.97,69.118L89.142,69.112L89.557,69.1L89.5,69.102C90.092,69.082 91.117,69.045 92.242,68.988L92.596,68.97L92.895,68.955C93.195,68.941 93.494,68.931 93.793,68.928L94.092,68.927C94.009,68.927 93.926,68.927 93.842,68.928C97.214,68.874 100.594,69.3 103.948,69.807C104.074,69.826 104.199,69.845 104.324,69.864L104.562,69.914L105.2,70.051C108.461,70.719 111.673,71.619 114.811,72.726C115.231,72.869 115.552,72.98 115.731,73.043L115.892,73.1L115.764,73.056C116.361,73.259 116.923,73.461 117.434,73.66L117.342,73.624C124.937,76.502 131.91,81.206 138.105,86.582C138.002,86.493 137.899,86.404 137.796,86.315C139.465,87.749 141.08,89.247 142.635,90.801L142.592,90.757C143.646,91.796 144.438,92.614 144.75,92.938L144.895,93.09C144.867,93.092 144.852,93.094 144.852,93.094L145.017,93.078C145.754,93.014 148.759,92.821 149.587,93.857C149.921,94.275 149.78,94.638 149.517,95.064L149.532,95.041L149.562,94.991C148.255,97.175 148.985,99.235 149.886,101.384L149.968,101.579C150.21,102.149 150.463,102.715 150.709,103.283C150.709,103.283 150.994,103.947 150.689,104.4C150.32,104.95 149.702,104.877 148.991,104.46L148.863,104.383C146.181,102.743 144.428,99.643 142.518,96.955C131.605,93.162 119.91,91.36 108.581,92.569C108.913,92.533 109.246,92.499 109.579,92.468L109.582,92.468L109.676,92.459L109.682,92.459L109.78,92.45L109.874,92.442L109.895,92.44L109.966,92.434L109.995,92.431L110.061,92.425L110.089,92.423L110.18,92.415C110.15,92.418 110.119,92.42 110.089,92.423L110.08,92.424L110.061,92.425L110.021,92.429L109.995,92.431L109.98,92.432L109.966,92.434L109.941,92.436L109.895,92.44L109.88,92.441L109.874,92.442C109.81,92.447 109.746,92.453 109.682,92.459L109.68,92.459L109.676,92.459L109.621,92.464L109.582,92.468L109.58,92.468L109.579,92.468C106.371,92.766 103.173,93.301 100.003,94.097L100.088,94.076L99.844,94.138L97.563,94.829C97.055,94.983 96.547,95.137 96.039,95.291L96.743,95.078C97.027,94.992 97.311,94.905 97.595,94.819C97.595,94.819 97.705,94.786 97.705,94.786L98.704,94.484L97.595,94.819C97.595,94.819 96.743,95.078 96.743,95.078C94.901,95.638 93.061,96.204 91.23,96.791L90.734,96.951L91.498,96.705C91.243,96.786 90.989,96.868 90.734,96.951C90.734,96.951 87.214,97.815 87.047,98.05C87.024,98.084 87.001,98.118 86.979,98.154L87.047,98.05L86.973,98.164C86.958,98.188 86.944,98.212 86.929,98.236L86.902,98.28C85.909,99.972 85.812,102.733 86.431,103.932L86.438,103.946C86.458,103.983 86.479,104.019 86.5,104.054L86.507,104.066C86.554,104.14 86.604,104.207 86.658,104.264C86.658,104.264 87.879,105.684 85.782,105.977L85.764,105.979L85.722,105.985L85.688,105.989L85.673,105.991L85.581,106L85.557,106.002L85.549,106.003L85.548,106.003L85.542,106.004C81.803,106.34 78.123,104.612 75.419,102.071C75.133,101.802 75.052,101.771 74.508,101.107L74.484,101.079C74.449,101.037 74.415,100.994 74.382,100.952L70.571,101.776L69.943,101.892C68.578,102.149 67.218,102.427 65.863,102.732L65.566,102.799L65.207,102.881L64.72,102.996C62.282,103.577 59.623,104.319 57.765,104.856C56.996,105.084 56.23,105.319 55.465,105.559C55.465,105.559 55.431,105.562 55.367,105.565L55.241,105.574C53.938,105.672 52.682,106.152 51.431,105.613L51.635,105.621L51.341,105.608C51.341,105.608 51.043,105.461 50.652,105.133L50.642,105.125C50.464,104.979 50.287,104.806 50.109,104.603L50.094,104.586L50.086,104.576L50.082,104.572L50.038,104.521L50.03,104.512L50.021,104.501L50.003,104.479L49.991,104.464L49.983,104.454L49.962,104.429L49.95,104.413L49.945,104.407C48.655,102.804 48.542,101.065 49.03,99.324L49.054,99.219C49.11,98.988 49.177,98.749 49.256,98.504C49.944,96.356 51.767,94.231 53.219,92.078C56.386,87.422 57.778,86.079 59.536,84.046C59.536,84.046 61.847,81.688 63.698,80.049C63.85,79.914 64.506,79.406 65.446,78.715L65.409,78.743C67.424,77.15 69.528,75.716 71.738,74.471L71.65,74.524C72.359,74.099 73.04,73.717 73.656,73.412C74.675,72.91 75.86,72.416 76.78,72.051L76.843,72.026L76.905,72.001L76.966,71.977L77.027,71.953L77.086,71.93L77.145,71.907L77.202,71.884L77.259,71.862L77.314,71.841L77.369,71.82L77.421,71.8L77.473,71.78L77.524,71.76L77.573,71.741L77.621,71.723L77.668,71.705L77.713,71.688L77.757,71.671L77.8,71.655L77.841,71.64L77.871,71.628L78.195,71.508C78.119,71.535 78.009,71.576 77.871,71.628L77.867,71.63L77.841,71.64L77.813,71.65L77.8,71.655L77.785,71.661L77.757,71.671L77.728,71.682L77.713,71.688L77.698,71.694L77.668,71.705L77.637,71.717L77.621,71.723L77.605,71.729L77.573,71.741L77.54,71.754L77.524,71.76L77.507,71.767L77.473,71.78L77.439,71.793L77.421,71.8L77.404,71.807L77.369,71.82L77.332,71.834L77.314,71.841L77.296,71.848L77.259,71.862L77.221,71.877L77.202,71.884L77.183,71.892L77.145,71.907L77.106,71.922L77.086,71.93L77.066,71.938L77.027,71.953L76.986,71.969L76.966,71.977L76.946,71.985L76.905,72.001L76.863,72.018L76.843,72.026L76.827,72.032L76.822,72.034L76.781,72.05L76.78,72.051L76.736,72.068L76.781,72.05L76.821,72.034L76.827,72.032C77.69,71.688 78.148,71.453 78.382,71.293C79.676,68.125 80.921,64.807 82.83,62.1L82.806,62.133C84.496,59.509 86.499,57.476 88.77,57.334L88.75,57.336C88.745,57.336 88.74,57.337 88.735,57.338L88.75,57.336ZM84.919,106.029L84.791,106.03L84.795,106.03L84.919,106.029ZM84.983,106.029C85.047,106.029 85.111,106.027 85.175,106.025L84.983,106.029ZM84.605,106.026L84.714,106.028L84.599,106.026L84.605,106.026ZM84.414,106.02L84.516,106.023L84.406,106.019L84.414,106.02ZM85.386,106.015L85.345,106.018L85.364,106.017L85.386,106.015ZM84.222,106.009L84.32,106.014L84.213,106.009L84.222,106.009ZM85.55,106.003L85.537,106.004L85.542,106.004L85.549,106.003L85.55,106.003ZM84.031,105.995L84.125,106.002L84.019,105.994L84.031,105.995ZM83.839,105.978L83.93,105.986L83.826,105.977L83.839,105.978ZM83.647,105.958L83.735,105.967L83.632,105.956L83.647,105.958ZM83.455,105.934L83.54,105.945L83.438,105.932L83.455,105.934ZM83.263,105.907L83.346,105.919L83.244,105.904L83.263,105.907ZM83.071,105.877L83.151,105.889L83.05,105.873L83.071,105.877ZM82.879,105.843L82.957,105.857L82.856,105.839L82.879,105.843ZM82.687,105.807L82.763,105.821L82.662,105.802L82.687,105.807ZM82.495,105.768L82.569,105.783L82.469,105.762L82.495,105.768ZM82.304,105.725L82.375,105.741L82.276,105.719L82.304,105.725ZM82.113,105.68L82.182,105.696L82.083,105.672L82.113,105.68ZM81.922,105.632L81.989,105.649L81.89,105.623L81.922,105.632ZM52.475,105.64C52.576,105.641 52.677,105.641 52.777,105.642L52.475,105.64ZM53.096,105.64L52.87,105.641L53.028,105.641L53.096,105.64ZM53.429,105.636L53.209,105.639L53.283,105.638L53.429,105.636ZM52.235,105.637L52.354,105.639L52.15,105.635L52.235,105.637ZM53.576,105.634L53.512,105.635L53.532,105.635L53.576,105.634ZM51.966,105.632L52.016,105.633L51.79,105.626L51.966,105.632ZM54.046,105.622L53.949,105.625L54.001,105.624L54.046,105.622ZM54.452,105.609L54.419,105.61L54.425,105.61L54.452,105.609ZM81.732,105.581L81.796,105.598L81.698,105.571L81.732,105.581ZM54.722,105.598L54.792,105.595L55.091,105.581L54.722,105.598ZM81.542,105.527L81.604,105.545L81.507,105.516L81.542,105.527ZM81.353,105.471L81.413,105.488L81.316,105.459L81.353,105.471ZM81.164,105.411L81.222,105.429L81.126,105.399L81.164,105.411ZM80.976,105.35L81.031,105.368L80.936,105.336L80.976,105.35ZM80.789,105.285L80.842,105.304L80.748,105.271L80.789,105.285ZM80.603,105.219L80.653,105.237L80.56,105.203L80.603,105.219ZM80.417,105.149L80.466,105.167L80.373,105.132L80.417,105.149ZM80.233,105.078L80.279,105.096L80.187,105.059L80.233,105.078ZM50.576,105.068L50.576,105.068L50.572,105.064L50.576,105.068ZM80.049,105.004L80.093,105.021L80.002,104.984L80.049,105.004ZM50.508,105.008L50.509,105.009L50.5,105.001L50.508,105.008ZM50.439,104.944L50.441,104.946L50.429,104.934L50.439,104.944ZM79.867,104.928L79.908,104.945L79.819,104.907L79.867,104.928ZM50.369,104.877L50.371,104.879L50.357,104.864L50.369,104.877ZM79.685,104.849L79.724,104.866L79.636,104.827L79.685,104.849ZM57.986,104.79L57.873,104.824L58.074,104.764L57.986,104.79ZM50.298,104.806L50.301,104.809L50.284,104.792L50.298,104.806ZM79.505,104.769L79.542,104.785L79.455,104.746L79.505,104.769ZM50.226,104.732L50.229,104.735L50.212,104.716L50.226,104.732ZM79.326,104.686L79.36,104.702L79.275,104.662L79.326,104.686ZM50.155,104.654L50.157,104.657L50.14,104.638L50.155,104.654ZM74.864,99.807C64.121,91.623 55.93,99.264 53.184,104.619C58.863,104.399 64.286,101.912 70.255,100.817C70.255,100.817 72.731,100.087 74.864,99.807ZM79.148,104.601L79.18,104.616L79.097,104.576L79.148,104.601ZM50.03,104.511L50.082,104.572L50.085,104.575L50.03,104.511ZM58.83,104.544L58.74,104.57L58.912,104.521L58.83,104.544ZM78.972,104.514L79.002,104.529L78.92,104.488L78.972,104.514ZM49.973,104.442L49.983,104.454L50.01,104.487L49.973,104.442ZM78.797,104.425L78.825,104.439L78.745,104.398L78.797,104.425ZM49.909,104.361L49.922,104.378L49.899,104.348L49.909,104.361ZM148.822,104.355L148.827,104.358L148.798,104.339L148.822,104.355ZM78.624,104.335L78.649,104.348L78.571,104.307L78.624,104.335ZM59.675,104.303L59.603,104.324L59.752,104.282L59.675,104.303ZM148.731,104.294L148.74,104.3L148.706,104.277L148.731,104.294ZM49.835,104.264L49.85,104.283L49.826,104.251L49.835,104.264ZM78.452,104.242L78.475,104.254L78.4,104.213L78.452,104.242ZM148.639,104.23L148.653,104.24L148.617,104.214L148.639,104.23ZM49.763,104.163L49.778,104.185L49.754,104.15L49.763,104.163ZM148.546,104.164L148.565,104.177L148.528,104.15L148.546,104.164ZM78.281,104.148L78.302,104.159L78.23,104.118L78.281,104.148ZM148.453,104.094L148.475,104.11L148.439,104.083L148.453,104.094ZM60.521,104.068L60.465,104.084L60.691,104.022L60.521,104.068ZM49.691,104.058L49.708,104.083L49.683,104.045L49.691,104.058ZM78.113,104.051L78.131,104.062L78.062,104.022L78.113,104.051ZM148.258,103.94C148.308,103.98 148.358,104.02 148.407,104.058L148.258,103.94ZM86.464,103.993C86.476,104.015 86.489,104.037 86.502,104.057L86.5,104.054L86.464,103.993ZM86.431,103.932C86.441,103.951 86.451,103.97 86.462,103.989L86.438,103.946L86.438,103.945L86.431,103.932L86.431,103.932L86.429,103.929L86.431,103.932ZM60.945,103.953L60.857,103.977L61.12,103.906L60.945,103.953ZM49.62,103.949L49.638,103.976L49.613,103.937L49.62,103.949ZM77.946,103.954L77.962,103.963L77.896,103.923L77.946,103.954ZM148.17,103.867L148.245,103.929L148.095,103.803L148.17,103.867ZM49.551,103.836L49.569,103.866L49.545,103.824L49.551,103.836ZM77.781,103.854L77.795,103.863L77.732,103.824L77.781,103.854ZM61.37,103.839L61.294,103.859L61.55,103.791L61.37,103.839ZM147.95,103.677C147.994,103.716 148.038,103.754 148.082,103.792L147.95,103.677ZM77.617,103.753L77.63,103.761L77.571,103.723L77.617,103.753ZM49.484,103.719L49.502,103.751L49.478,103.708L49.484,103.719ZM61.794,103.727L61.73,103.744L61.982,103.678L61.794,103.727ZM77.456,103.65L77.466,103.657L77.412,103.622L77.456,103.65ZM49.419,103.597L49.437,103.632L49.414,103.587L49.419,103.597ZM62.22,103.616L62.166,103.63L62.415,103.565L62.22,103.616ZM149.428,103.618L149.43,103.619L149.387,103.593L149.428,103.618ZM149.412,103.607L149.424,103.613L149.384,103.588L149.412,103.607ZM147.788,103.53L147.838,103.576L147.768,103.512L147.788,103.53ZM77.296,103.546L77.305,103.552L77.256,103.519L77.296,103.546ZM149.309,103.545L149.312,103.547L149.255,103.51L149.309,103.545ZM149.272,103.517L149.294,103.531L149.248,103.501L149.272,103.517ZM62.645,103.506L62.601,103.517L62.852,103.454L62.645,103.506ZM49.355,103.472L49.374,103.508L49.351,103.463L49.355,103.472ZM149.19,103.467L149.196,103.471L149.124,103.422L149.19,103.467ZM77.139,103.441L77.145,103.445L77.103,103.416L77.139,103.441ZM149.127,103.419L149.156,103.438L149.115,103.409L149.127,103.419ZM63.071,103.398L63.036,103.407L63.291,103.343L63.071,103.398ZM147.596,103.349L147.645,103.396L147.586,103.339L147.596,103.349ZM149.034,103.358L149.073,103.386L149.084,103.394L148.98,103.312L148.981,103.313L148.979,103.311L148.862,103.223L149.034,103.358ZM49.294,103.341L49.312,103.38L49.291,103.334L49.294,103.341ZM76.983,103.334L76.988,103.337L76.954,103.313L76.983,103.334ZM148.956,103.3L149.004,103.336L148.942,103.29L148.956,103.3ZM63.498,103.292L63.472,103.298L63.737,103.233L63.498,103.292ZM49.236,103.207L49.253,103.246L49.234,103.201L49.236,103.207ZM148.84,103.211L148.883,103.244L148.832,103.205L148.84,103.211ZM76.83,103.225L76.833,103.227L76.81,103.211L76.83,103.225ZM63.924,103.187L63.907,103.191L64.201,103.12L63.924,103.187ZM148.726,103.119L148.761,103.147L148.722,103.115L148.726,103.119ZM148.738,103.125L148.757,103.14L148.737,103.125L148.738,103.125ZM76.679,103.116L76.68,103.116L76.672,103.11L76.679,103.116ZM49.181,103.068L49.196,103.106L49.179,103.064L49.181,103.068ZM147.212,102.966L147.222,102.976L147.162,102.913L147.212,102.966ZM49.128,102.925L49.14,102.956L49.128,102.923L49.128,102.925ZM65.863,102.732L65.965,102.709L65.636,102.783L65.566,102.799L65.702,102.768C65.756,102.756 65.809,102.744 65.863,102.732ZM147.021,102.766L147.041,102.786L146.97,102.711L147.021,102.766ZM49.08,102.778L49.081,102.784L49.079,102.778L49.08,102.778ZM66.065,102.686L66.012,102.698L66.369,102.619L66.065,102.686ZM66.495,102.591L66.454,102.6L66.778,102.529L66.495,102.591ZM146.833,102.561L146.861,102.592L146.787,102.511L146.833,102.561ZM66.925,102.497L66.895,102.504L67.193,102.44L66.925,102.497ZM48.992,102.47L48.993,102.471L48.985,102.438L48.992,102.47ZM67.355,102.405L67.333,102.41L67.616,102.351L67.355,102.405ZM146.646,102.354L146.682,102.394L146.609,102.311L146.646,102.354ZM67.786,102.315L67.771,102.318L68.049,102.261L67.786,102.315ZM48.955,102.309L48.956,102.313L48.945,102.262L48.955,102.309ZM68.217,102.226L68.208,102.228L68.504,102.169L68.217,102.226ZM146.462,102.143L146.505,102.192L146.434,102.11L146.462,102.143ZM48.921,102.143L48.923,102.15L48.912,102.09L48.921,102.143ZM68.644,102.141L69.081,102.055L68.649,102.14L68.644,102.141ZM146.281,101.931L146.328,101.987L146.262,101.909L146.281,101.931ZM48.893,101.973L48.894,101.983L48.885,101.916L48.893,101.973ZM69.826,101.913L69.73,101.932L69.928,101.894L69.826,101.913ZM48.868,101.798L48.87,101.811L48.862,101.74L48.868,101.798ZM146.104,101.719L146.149,101.773L146.095,101.708L146.104,101.719ZM48.849,101.619L48.851,101.634L48.845,101.559L48.849,101.619ZM149.966,101.575L149.894,101.403L149.886,101.384L149.81,101.204C149.862,101.328 149.914,101.451 149.966,101.575L149.982,101.612L149.968,101.579L149.966,101.575ZM48.835,101.434L48.836,101.453L48.832,101.375L48.835,101.434ZM48.826,101.245L48.827,101.267L48.825,101.186L48.826,101.245ZM48.823,101.052L48.824,101.077L48.824,100.993L48.823,101.052ZM149.702,100.94L149.715,100.972L149.698,100.932L149.702,100.94ZM48.831,100.732C48.828,100.783 48.827,100.832 48.826,100.881L48.831,100.732ZM48.843,100.531C48.839,100.588 48.835,100.645 48.832,100.702L48.843,100.531ZM149.567,100.603L149.58,100.635L149.55,100.559L149.567,100.603ZM48.862,100.324C48.855,100.384 48.85,100.443 48.845,100.502L48.862,100.324ZM149.437,100.264L149.453,100.308L149.427,100.239L149.437,100.264ZM48.886,100.113C48.878,100.175 48.871,100.236 48.864,100.297L48.886,100.113ZM149.373,100.094L149.408,100.186L149.348,100.024L149.373,100.094ZM48.918,99.896C48.908,99.961 48.898,100.025 48.89,100.089L48.918,99.896ZM149.312,99.924L149.326,99.964L149.252,99.753L149.312,99.924ZM48.936,99.786L48.921,99.877L48.955,99.68L48.936,99.786ZM149.193,99.582L149.251,99.753L149.18,99.543L149.193,99.582ZM48.979,99.557L48.959,99.662L48.999,99.462L48.979,99.557ZM149.136,99.41L149.16,99.482L149.107,99.319L149.136,99.41ZM149.024,99.053C149.045,99.123 149.067,99.194 149.089,99.264L149.024,99.053ZM148.977,98.892L149.013,99.014L148.961,98.837L148.977,98.892ZM148.928,98.718L148.943,98.774L148.895,98.597L148.928,98.718ZM148.83,98.343C148.848,98.414 148.866,98.486 148.884,98.557L148.83,98.343ZM148.794,98.193L148.817,98.288L148.778,98.12L148.794,98.193ZM86.929,98.236L86.963,98.179C86.943,98.212 86.922,98.246 86.902,98.28L86.902,98.281L86.902,98.28L86.902,98.28L86.92,98.251L86.929,98.236ZM148.696,97.724C148.702,97.762 148.709,97.801 148.717,97.84C148.732,97.913 148.747,97.985 148.764,98.058L148.717,97.84L148.696,97.724ZM148.683,97.635L148.691,97.688L148.68,97.61L148.683,97.635ZM148.671,97.536L148.675,97.569L148.667,97.497L148.671,97.536ZM148.662,97.439L148.664,97.458L148.659,97.378L148.662,97.439ZM148.655,97.247C148.655,97.281 148.656,97.316 148.657,97.351L148.655,97.247ZM148.656,97.161L148.655,97.224L148.657,97.145L148.656,97.161ZM148.66,97.072L148.658,97.11L148.662,97.044L148.66,97.072ZM148.667,96.985L148.665,97.009L148.671,96.943L148.667,96.985ZM148.676,96.9L148.675,96.912L148.687,96.828L148.676,96.9ZM148.704,96.727C148.698,96.757 148.693,96.787 148.688,96.818L148.704,96.727ZM141.75,96.691L141.933,96.753L141.878,96.734L141.75,96.691ZM148.719,96.655L148.71,96.699L148.724,96.637L148.719,96.655ZM91.869,96.586L91.686,96.644L92.072,96.521L91.869,96.586ZM148.738,96.577L148.731,96.605L148.746,96.547L148.738,96.577ZM141.135,96.484L141.34,96.552L141.237,96.517L141.135,96.484ZM148.759,96.5L148.754,96.517L148.772,96.455L148.759,96.5ZM148.807,96.349C148.797,96.377 148.788,96.404 148.78,96.432L148.807,96.349ZM140.54,96.288L140.723,96.348L140.594,96.305L140.54,96.288ZM148.832,96.28L148.812,96.335L148.837,96.269L148.832,96.28ZM93.005,96.227L92.822,96.284L93.135,96.186L93.005,96.227ZM148.86,96.209L148.847,96.241L148.868,96.189L148.86,96.209ZM148.889,96.14L148.88,96.16L148.903,96.109L148.889,96.14ZM139.942,96.096L139.951,96.099L139.95,96.098L139.942,96.096ZM148.919,96.073L148.914,96.083L148.943,96.021L148.919,96.073ZM148.95,96.006L148.949,96.009L148.953,96.001L148.95,96.006ZM139.175,95.857L139.36,95.914L139.304,95.896L139.175,95.857ZM94.143,95.873L94.064,95.897L94.158,95.868L94.143,95.873ZM149.016,95.877L149.01,95.89L149.021,95.869L149.016,95.877ZM149.085,95.753L149.08,95.761L149.093,95.74L149.085,95.753ZM138.554,95.668L138.761,95.73L138.657,95.698L138.554,95.668ZM149.155,95.634L149.132,95.674L149.185,95.586L149.155,95.634ZM95.282,95.522L95.158,95.561L95.589,95.429L95.282,95.522ZM137.954,95.49L138.138,95.544L138.008,95.506L137.954,95.49ZM149.227,95.518L149.213,95.54L149.273,95.446L149.227,95.518ZM149.298,95.407L149.294,95.413L149.372,95.292L149.396,95.255L149.298,95.407ZM137.343,95.314L137.36,95.318L137.358,95.318L137.343,95.314ZM149.468,95.142L149.444,95.181L149.455,95.164L149.468,95.142ZM136.577,95.1L136.765,95.151L136.707,95.135L136.577,95.1ZM135.952,94.93L136.161,94.986L136.055,94.957L135.952,94.93ZM135.347,94.771L135.533,94.819L135.401,94.784L135.347,94.771ZM134.723,94.611L134.749,94.618L134.747,94.617L134.723,94.611ZM106.047,91.72C107.065,90.994 108.191,90.325 109.398,89.787C111.708,88.758 113.634,88.291 115.072,87.322C116.591,85.717 116.171,84.732 113.488,84.473C113.488,84.473 112.528,84.367 111.884,84.313C111.884,84.313 110.515,84.235 109.548,84.222C109.282,84.22 109.282,84.22 109.017,84.221C106.942,84.24 104.796,84.452 102.84,85.13C101.278,85.672 99.811,86.419 98.581,87.462C98.062,87.902 96.941,89.282 96.941,89.282C95.879,90.858 95.142,92.675 94.896,94.599C96.453,94.117 98.011,93.64 99.574,93.175C101.67,92.55 103.832,92.068 106.047,91.72ZM133.958,94.423L134.15,94.469L134.091,94.454L133.958,94.423ZM144.937,94.37L145.209,94.345L145.263,94.34L145.221,94.344L144.957,94.368L144.937,94.37ZM144.957,94.366L144.945,94.368L145.087,94.355L144.957,94.366ZM133.33,94.273L133.542,94.323L133.434,94.297L133.33,94.273ZM132.721,94.133L132.909,94.176L132.775,94.145L132.721,94.133ZM132.082,93.991L132.121,93.999L132.116,93.998L132.082,93.991ZM131.322,93.829L131.517,93.869L131.456,93.856L131.322,93.829ZM130.69,93.699L130.906,93.743L130.795,93.72L130.69,93.699ZM130.079,93.579L130.269,93.616L130.133,93.589L130.079,93.579ZM129.425,93.456L129.476,93.465L129.47,93.464L129.425,93.456ZM65.082,88.284C67.562,86.534 69.465,86.763 70.576,86.531C71.513,86.336 69.59,89.412 67.081,91.119C64.403,92.941 60.669,94.196 61.587,92.871C62.476,91.59 62.601,90.033 65.082,88.284ZM128.669,93.321L128.87,93.356L128.807,93.344L128.669,93.321ZM128.036,93.213L128.255,93.25L128.142,93.23L128.036,93.213ZM127.421,93.113L127.617,93.145L127.477,93.122L127.421,93.113ZM144.852,93.094L144.574,92.798L144.53,92.751L144.852,93.094ZM126.751,93.01L126.819,93.02L126.811,93.019L126.751,93.01ZM126.003,92.902L126.21,92.931L126.144,92.922L126.003,92.902ZM125.368,92.816L125.594,92.846L125.477,92.83L125.368,92.816ZM124.752,92.738L124.953,92.763L124.809,92.745L124.752,92.738ZM124.065,92.657L124.15,92.666L124.14,92.665L124.065,92.657ZM144.201,92.404L144.43,92.645L144.295,92.502L144.201,92.404ZM123.096,92.552L123.54,92.599C123.392,92.583 123.244,92.568 123.096,92.552ZM122.589,92.503L123.054,92.548L122.801,92.523L122.589,92.503ZM122.043,92.454L122.528,92.497C122.366,92.482 122.205,92.468 122.043,92.454ZM121.43,92.403L121.475,92.407L121.524,92.411L121.969,92.447C121.821,92.435 121.672,92.422 121.524,92.411L121.477,92.407L121.43,92.403C121.281,92.391 121.131,92.38 120.981,92.369L121.43,92.403ZM110.735,92.371L111.255,92.334C111.082,92.346 110.908,92.358 110.735,92.371L110.729,92.372L110.723,92.372C110.55,92.385 110.377,92.399 110.204,92.413L110.723,92.372L110.729,92.372L110.735,92.371ZM120.412,92.33L120.905,92.364C120.741,92.352 120.576,92.341 120.412,92.33ZM111.8,92.3C111.624,92.31 111.449,92.321 111.274,92.333L111.8,92.3ZM119.901,92.299L120.383,92.329L120.119,92.312L119.901,92.299ZM112.358,92.269L112.86,92.246C112.693,92.253 112.525,92.261 112.358,92.269L112.341,92.27L112.328,92.271C112.156,92.279 111.984,92.289 111.812,92.299L112.328,92.271L112.336,92.27L112.358,92.269ZM119.356,92.27L119.849,92.296C119.685,92.287 119.52,92.278 119.356,92.27ZM143.854,92.041L144.09,92.288L144.015,92.209L143.854,92.041ZM118.753,92.243L118.792,92.244L118.834,92.246L119.293,92.267C119.14,92.26 118.987,92.253 118.834,92.246L118.793,92.244L118.753,92.243C118.599,92.236 118.445,92.23 118.291,92.225L118.753,92.243ZM113.437,92.223L113.933,92.208C113.768,92.212 113.603,92.217 113.437,92.223L113.417,92.224L113.397,92.224C113.231,92.23 113.065,92.237 112.9,92.244L113.397,92.224L113.416,92.224L113.437,92.223ZM117.722,92.207L118.225,92.223C118.057,92.217 117.89,92.212 117.722,92.207ZM117.208,92.195L117.709,92.207L117.431,92.2L117.208,92.195ZM114.483,92.195C114.312,92.198 114.14,92.202 113.969,92.207L114.483,92.195ZM116.664,92.187L117.167,92.195C116.999,92.191 116.832,92.189 116.664,92.187ZM115.055,92.186L115.543,92.182C115.38,92.183 115.218,92.184 115.055,92.186L115.03,92.186L115.007,92.187C114.842,92.189 114.676,92.191 114.51,92.194L115.007,92.187L115.026,92.186L115.055,92.186ZM116.074,92.182C115.915,92.182 115.756,92.182 115.596,92.182L116.074,92.182L116.138,92.183L116.613,92.186C116.455,92.184 116.296,92.183 116.138,92.183L116.106,92.182L116.074,92.182ZM143.438,91.613L143.76,91.944C143.653,91.833 143.546,91.723 143.438,91.613ZM143.112,91.28L143.352,91.525L143.165,91.334L143.112,91.28ZM142.784,90.95L142.978,91.145L142.879,91.045L142.784,90.95ZM137.44,86.012L137.673,86.21L137.541,86.098L137.44,86.012ZM137.004,85.644L137.31,85.901L137.258,85.857L137.004,85.644ZM136.625,85.328L136.906,85.562L136.688,85.38L136.625,85.328ZM136.247,85.018L136.496,85.222L136.401,85.144L136.247,85.018ZM135.797,84.652L136.137,84.928C136.024,84.835 135.911,84.744 135.797,84.652ZM135.431,84.359L135.686,84.563L135.535,84.442L135.431,84.359ZM134.99,84.009L135.307,84.26L135.244,84.21L134.99,84.009ZM134.596,83.702L134.919,83.954L134.66,83.751L134.596,83.702ZM134.209,83.403L134.474,83.608L134.366,83.524L134.209,83.403ZM133.748,83.053L134.103,83.322C133.985,83.232 133.867,83.142 133.748,83.053ZM133.373,82.771L133.649,82.978L133.479,82.85L133.373,82.771ZM132.929,82.442L133.253,82.682L133.181,82.628L132.929,82.442ZM132.519,82.142L132.883,82.408C132.762,82.319 132.64,82.23 132.519,82.142ZM132.123,81.857L132.402,82.058L132.281,81.97L132.123,81.857ZM131.651,81.521L132.018,81.782C131.896,81.695 131.774,81.608 131.651,81.521ZM131.268,81.252L131.562,81.459L131.372,81.325L131.268,81.252ZM130.82,80.943L131.15,81.171L131.067,81.113L130.82,80.943ZM130.393,80.652L130.769,80.908C130.644,80.822 130.519,80.737 130.393,80.652ZM129.99,80.381L130.281,80.576L130.147,80.486L129.99,80.381ZM129.506,80.06L129.885,80.311C129.759,80.227 129.632,80.144 129.506,80.06ZM129.114,79.805L129.428,80.009L129.217,79.872L129.114,79.805ZM128.665,79.516L128.998,79.729L128.906,79.67L128.665,79.516ZM128.22,79.234L128.606,79.478C128.478,79.397 128.349,79.315 128.22,79.234ZM127.81,78.978L128.111,79.166L127.965,79.074L127.81,78.978ZM127.314,78.673L127.704,78.912C127.574,78.832 127.444,78.753 127.314,78.673ZM126.915,78.432L127.247,78.633L127.015,78.492L126.915,78.432ZM66.079,78.254C65.906,78.379 65.739,78.5 65.58,78.617L66.079,78.254ZM126.464,78.163L126.798,78.362L126.697,78.301L126.464,78.163ZM126.001,77.892L126.397,78.124C126.265,78.046 126.134,77.969 126.001,77.892ZM125.585,77.652L125.895,77.831L125.736,77.738L125.585,77.652ZM125.076,77.363L125.476,77.59C125.343,77.514 125.209,77.438 125.076,77.363ZM124.669,77.137L125.021,77.333L124.767,77.19L124.669,77.137ZM67.542,77.214L67.538,77.217L67.578,77.189L67.542,77.214ZM124.216,76.888L124.552,77.072L124.442,77.011L124.216,76.888ZM67.944,76.935L67.925,76.948L68.027,76.878L67.944,76.935ZM123.737,76.629L124.141,76.847C124.007,76.774 123.872,76.701 123.737,76.629ZM68.354,76.654L68.322,76.676L68.451,76.587L68.354,76.654ZM123.314,76.405L123.633,76.574L123.461,76.482L123.314,76.405ZM68.77,76.37L68.725,76.401L68.87,76.304L68.77,76.37ZM122.793,76.133L123.202,76.346C123.066,76.275 122.929,76.204 122.793,76.133ZM69.192,76.087L69.135,76.126L69.287,76.025L69.192,76.087ZM122.379,75.922L122.753,76.113L122.473,75.969L122.379,75.922ZM121.924,75.693L122.261,75.862L122.141,75.802L121.924,75.693ZM69.618,75.806L69.549,75.851L69.704,75.749L69.618,75.806ZM121.428,75.448L121.84,75.651C121.703,75.583 121.566,75.516 121.428,75.448ZM70.045,75.527L69.966,75.579L70.122,75.478L70.045,75.527ZM120.999,75.241L121.327,75.399L121.142,75.309L120.999,75.241ZM70.473,75.253L70.386,75.309L70.537,75.212L70.473,75.253ZM120.466,74.987L120.883,75.185C120.744,75.119 120.605,75.053 120.466,74.987ZM70.898,74.985L70.806,75.043L70.951,74.952L70.898,74.985ZM120.045,74.792L120.443,74.977L120.134,74.833L120.045,74.792ZM71.321,74.724L71.227,74.781L71.361,74.7L71.321,74.724ZM119.587,74.582L119.926,74.737L119.797,74.677L119.587,74.582ZM119.076,74.353L119.496,74.541C119.356,74.478 119.216,74.415 119.076,74.353ZM118.641,74.163L118.978,74.31L118.779,74.222L118.641,74.163ZM118.096,73.928L118.522,74.111C118.38,74.049 118.238,73.988 118.096,73.928C118.008,73.891 117.918,73.853 117.826,73.816L118.096,73.928ZM117.503,73.687L117.772,73.794C117.684,73.758 117.595,73.722 117.503,73.687ZM115.663,73.022C115.548,72.983 115.432,72.944 115.316,72.906L115.663,73.022ZM89.753,70.087C89.627,70.096 89.502,70.105 89.376,70.115L89.423,70.192C89.524,70.183 89.635,70.145 89.753,70.087ZM103.567,69.753L103.642,69.763L103.596,69.757L103.567,69.753ZM89.866,69.093L89.805,69.094L89.903,69.092L89.866,69.093ZM90.317,69.084L90.201,69.086L90.357,69.083L90.317,69.084ZM90.846,69.076L90.701,69.078L90.872,69.076L90.846,69.076ZM92.182,68.993C92.021,69.003 91.859,69.013 91.698,69.022L92.182,68.993ZM82.925,61.965L82.892,62.012L82.97,61.904L82.925,61.965ZM83.047,61.798L83.03,61.82L83.127,61.69L83.047,61.798ZM83.294,61.47L83.179,61.621L83.307,61.454L83.294,61.47ZM83.421,61.308L83.363,61.382L83.454,61.268L83.421,61.308ZM88.707,61.197C88.691,61.244 88.676,61.292 88.662,61.339L88.707,61.197ZM83.55,61.148L83.514,61.192L83.608,61.078L83.55,61.148ZM88.719,61.162L88.714,61.177L88.735,61.117L88.719,61.162ZM83.68,60.99L83.664,61.01L83.8,60.849L83.68,60.99ZM88.781,60.987L88.775,61.006L88.799,60.942L88.781,60.987ZM88.849,60.814L88.838,60.841L88.865,60.775L88.849,60.814ZM83.947,60.68L83.835,60.808L83.966,60.659L83.947,60.68ZM88.92,60.643L88.905,60.678L88.933,60.613L88.92,60.643ZM84.084,60.528L84.023,60.596L84.126,60.482L84.084,60.528ZM88.994,60.474L88.977,60.514L89.003,60.454L88.994,60.474ZM84.222,60.377L84.186,60.417L84.296,60.3L84.222,60.377ZM89.07,60.308L89.053,60.346L89.075,60.297L89.07,60.308ZM84.51,60.079C84.456,60.134 84.402,60.189 84.349,60.245L84.51,60.079ZM89.226,59.983L89.148,60.144L89.27,59.893L89.226,59.983ZM84.651,59.939L84.543,60.047L84.678,59.914L84.651,59.939ZM84.799,59.797L84.736,59.857L84.851,59.748L84.799,59.797ZM84.948,59.657L84.913,59.69L85.04,59.574L84.948,59.657ZM89.479,59.464L89.388,59.654L89.418,59.593L89.479,59.464ZM85.264,59.376C85.205,59.427 85.146,59.479 85.088,59.531L85.264,59.376ZM89.575,59.263L89.536,59.347L89.543,59.332L89.575,59.263ZM85.412,59.251L85.306,59.341L85.446,59.223L85.412,59.251ZM85.571,59.121L85.509,59.172L85.635,59.07L85.571,59.121ZM85.733,58.993L85.698,59.02L85.847,58.905L85.733,58.993ZM86.079,58.733C86.015,58.779 85.951,58.826 85.888,58.874L86.079,58.733ZM86.233,58.623L86.13,58.696L86.276,58.593L86.233,58.623ZM86.405,58.504L86.344,58.547L86.482,58.453L86.405,58.504ZM88.763,58.492L88.754,58.502L88.757,58.5L88.763,58.492ZM88.792,58.46L88.78,58.473L88.786,58.467L88.792,58.46ZM88.818,58.425L88.808,58.44L88.814,58.432L88.818,58.425ZM86.58,58.389L86.548,58.41L86.724,58.297L86.58,58.389ZM88.841,58.389L88.831,58.407L88.837,58.397L88.841,58.389ZM88.846,58.378L88.844,58.385L88.845,58.381L88.846,58.378ZM88.85,58.365L88.848,58.371L88.85,58.368L88.85,58.365ZM88.849,58.355L88.85,58.36L88.85,58.356L88.849,58.355ZM88.844,58.346L88.847,58.351C88.847,58.349 88.846,58.348 88.844,58.347L88.844,58.346L88.844,58.346ZM88.844,58.346C88.839,58.343 88.832,58.341 88.821,58.341L88.82,58.341L88.817,58.347L88.844,58.346ZM86.959,58.152C86.889,58.194 86.82,58.236 86.752,58.279L86.959,58.152ZM87.12,58.058L87.11,58.064L87.14,58.046L87.12,58.058ZM87.306,57.953L87.288,57.963L87.313,57.949L87.306,57.953ZM87.494,57.851L87.478,57.86L87.515,57.84L87.494,57.851ZM87.941,57.617L87.833,57.675L87.835,57.674L87.954,57.61L87.941,57.617ZM88.068,57.55L88.063,57.553L88.114,57.528L88.068,57.55ZM88.2,57.487C88.177,57.498 88.154,57.508 88.131,57.519L88.2,57.487ZM88.262,57.46L88.225,57.476L88.271,57.457L88.262,57.46ZM88.329,57.434L88.302,57.445L88.344,57.428L88.329,57.434ZM88.398,57.41L88.378,57.417L88.419,57.403L88.398,57.41ZM88.468,57.388L88.454,57.392L88.497,57.38L88.468,57.388ZM88.54,57.369L88.533,57.371L88.578,57.361L88.54,57.369ZM88.692,57.342C88.665,57.345 88.639,57.349 88.613,57.354L88.692,57.342Z" style="fill:rgb(150,0,0);"/>
    </g>
</svg>
