<?xml version="1.0" encoding="UTF-8" standalone="no"?>
<!DOCTYPE svg PUBLIC "-//W3C//DTD SVG 1.1//EN" "http://www.w3.org/Graphics/SVG/1.1/DTD/svg11.dtd">
<svg width="100%" height="100%" viewBox="0 0 1590 595" version="1.1" xmlns="http://www.w3.org/2000/svg" xmlns:xlink="http://www.w3.org/1999/xlink" xml:space="preserve" xmlns:serif="http://www.serif.com/" style="fill-rule:evenodd;clip-rule:evenodd;stroke-linejoin:round;stroke-miterlimit:1.41421;">
    <g transform="matrix(1,0,0,1,111.531,0)">
        <g transform="matrix(4.94169,0,0,4.94169,179.239,92.1819)">
            <path d="M20.571,12.165L21.149,12.621L21.149,19.72C21.721,19.897 22.141,20.229 22.141,20.715C22.141,21.052 21.939,21.315 21.625,21.503L21.625,27.886C22.535,28.017 23.505,28.266 24.504,28.687L24.504,30.668L25.883,32.214L25.883,35.144L25.883,35.145L25.883,35.152C25.883,35.54 25.613,35.906 25.146,36.225L25.145,36.226L25.144,36.226C24.485,36.675 23.434,37.032 22.192,37.229C22.786,51.043 24.184,80.441 25.68,90L20.598,90L19.544,90L14.462,90C15.957,80.446 17.354,51.076 17.949,37.252C15.794,36.93 14.262,36.113 14.262,35.153L14.258,35.148L14.258,32.218L15.415,30.668L15.415,28.687C15.415,28.687 16.627,28.088 18.512,27.858L18.512,21.498C18.202,21.31 18.004,21.049 18.004,20.715C18.004,20.228 18.424,19.897 18.997,19.72L18.997,12.621L19.571,12.165L19.571,-4.839C19.581,-4.973 19.907,-5.245 20.065,-5.244C20.24,-5.244 20.57,-4.99 20.571,-4.839L20.571,12.165Z" style="fill-rule:nonzero;"/>
        </g>
        <g class="red-light" transform="matrix(1.01693,0,0,0.0611155,258.067,524.525)">
            <rect x="16.68" y="85.672" width="7.054" height="117.375" style="fill:rgb(116,199,255);"/>
        </g>
        <g class="red-light" transform="matrix(1.01693,0,0,0.0611155,258.067,516.386)">
            <rect x="16.68" y="85.672" width="7.054" height="117.375" style="fill:rgb(116,199,255);"/>
        </g>
        <g class="red-light" transform="matrix(1.01693,0,0,0.0611155,258.067,508.247)">
            <rect x="16.68" y="85.672" width="7.054" height="117.375" style="fill:rgb(116,199,255);"/>
        </g>
        <g class="red-light" transform="matrix(1.01693,0,0,0.0611155,258.067,500.108)">
            <rect x="16.68" y="85.672" width="7.054" height="117.375" style="fill:rgb(116,199,255);"/>
        </g>
        <g class="red-light" transform="matrix(1.01693,0,0,0.0611155,258.067,491.969)">
            <rect x="16.68" y="85.672" width="7.054" height="117.375" style="fill:rgb(116,199,255);"/>
        </g>
        <g class="red-light" transform="matrix(1.01693,0,0,0.0611155,258.067,483.83)">
            <rect x="16.68" y="85.672" width="7.054" height="117.375" style="fill:rgb(116,199,255);"/>
        </g>
        <g class="red-light" transform="matrix(1.01693,0,0,0.0611155,258.067,475.691)">
            <rect x="16.68" y="85.672" width="7.054" height="117.375" style="fill:rgb(116,199,255);"/>
        </g>
        <g class="red-light" transform="matrix(1.01693,0,0,0.0611155,258.067,467.551)">
            <rect x="16.68" y="85.672" width="7.054" height="117.375" style="fill:rgb(116,199,255);"/>
        </g>
        <g class="red-light" transform="matrix(1.01693,0,0,0.0611155,258.067,459.412)">
            <rect x="16.68" y="85.672" width="7.054" height="117.375" style="fill:rgb(116,199,255);"/>
        </g>
        <g class="red-light" transform="matrix(1.01693,0,0,0.0611155,258.067,451.273)">
            <rect x="16.68" y="85.672" width="7.054" height="117.375" style="fill:rgb(116,199,255);"/>
        </g>
        <g class="red-light" transform="matrix(1.01693,0,0,0.0611155,258.067,443.134)">
            <rect x="16.68" y="85.672" width="7.054" height="117.375" style="fill:rgb(116,199,255);"/>
        </g>
        <g class="red-light" transform="matrix(1.01693,0,0,0.0611155,258.067,434.995)">
            <rect x="16.68" y="85.672" width="7.054" height="117.375" style="fill:rgb(116,199,255);"/>
        </g>
        <g class="red-light" transform="matrix(1.01693,0,0,0.0611155,258.067,426.856)">
            <rect x="16.68" y="85.672" width="7.054" height="117.375" style="fill:rgb(116,199,255);"/>
        </g>
        <g class="red-light" transform="matrix(1.01693,0,0,0.0611155,258.067,418.717)">
            <rect x="16.68" y="85.672" width="7.054" height="117.375" style="fill:rgb(116,199,255);"/>
        </g>
        <g class="red-light" transform="matrix(1.01693,0,0,0.0611155,258.067,410.578)">
            <rect x="16.68" y="85.672" width="7.054" height="117.375" style="fill:rgb(116,199,255);"/>
        </g>
        <g class="red-light" transform="matrix(1.01693,0,0,0.0611155,258.067,402.439)">
            <rect x="16.68" y="85.672" width="7.054" height="117.375" style="fill:rgb(116,199,255);"/>
        </g>
        <g class="red-light" transform="matrix(1.01693,0,0,0.0611155,258.067,394.3)">
            <rect x="16.68" y="85.672" width="7.054" height="117.375" style="fill:rgb(116,199,255);"/>
        </g>
        <g class="red-light" transform="matrix(1.01693,0,0,0.0611155,258.067,386.16)">
            <rect x="16.68" y="85.672" width="7.054" height="117.375" style="fill:rgb(116,199,255);"/>
        </g>
        <g class="red-light" transform="matrix(1.01693,0,0,0.0611155,258.067,378.021)">
            <rect x="16.68" y="85.672" width="7.054" height="117.375" style="fill:rgb(116,199,255);"/>
        </g>
        <g class="red-light" transform="matrix(1.01693,0,0,0.0611155,258.067,369.882)">
            <rect x="16.68" y="85.672" width="7.054" height="117.375" style="fill:rgb(116,199,255);"/>
        </g>
        <g class="red-light" transform="matrix(1.01693,0,0,0.0611155,258.067,361.743)">
            <rect x="16.68" y="85.672" width="7.054" height="117.375" style="fill:rgb(116,199,255);"/>
        </g>
        <g class="red-light" transform="matrix(1.01693,0,0,0.0611155,258.067,353.604)">
            <rect x="16.68" y="85.672" width="7.054" height="117.375" style="fill:rgb(116,199,255);"/>
        </g>
        <g class="red-light" transform="matrix(1.01693,0,0,0.0611155,258.067,345.465)">
            <rect x="16.68" y="85.672" width="7.054" height="117.375" style="fill:rgb(116,199,255);"/>
        </g>
        <g class="red-light" transform="matrix(1.01693,0,0,0.0611155,258.067,337.326)">
            <rect x="16.68" y="85.672" width="7.054" height="117.375" style="fill:rgb(116,199,255);"/>
        </g>
        <g class="red-light" transform="matrix(1.01693,0,0,0.0611155,258.067,329.187)">
            <rect x="16.68" y="85.672" width="7.054" height="117.375" style="fill:rgb(116,199,255);"/>
        </g>
        <g class="red-light" transform="matrix(1.01693,0,0,0.0611155,258.067,321.048)">
            <rect x="16.68" y="85.672" width="7.054" height="117.375" style="fill:rgb(116,199,255);"/>
        </g>
        <g class="red-light" transform="matrix(1.01693,0,0,0.0611155,258.067,312.909)">
            <rect x="16.68" y="85.672" width="7.054" height="117.375" style="fill:rgb(116,199,255);"/>
        </g>
        <g class="red-light" transform="matrix(1.01693,0,0,0.0611155,258.067,304.77)">
            <rect x="16.68" y="85.672" width="7.054" height="117.375" style="fill:rgb(116,199,255);"/>
        </g>
        <g class="red-light" transform="matrix(1.01693,0,0,0.0611155,258.067,296.63)">
            <rect x="16.68" y="85.672" width="7.054" height="117.375" style="fill:rgb(116,199,255);"/>
        </g>
        <g class="red-light" transform="matrix(1.01693,0,0,0.0611155,258.067,288.491)">
            <rect x="16.68" y="85.672" width="7.054" height="117.375" style="fill:rgb(116,199,255);"/>
        </g>
        <g class="red-light" transform="matrix(1.01693,0,0,0.0611155,258.067,280.352)">
            <rect x="16.68" y="85.672" width="7.054" height="117.375" style="fill:rgb(116,199,255);"/>
        </g>
        <g class="red-light" transform="matrix(1.01693,0,0,0.0611155,258.067,272.213)">
            <rect x="16.68" y="85.672" width="7.054" height="117.375" style="fill:rgb(116,199,255);"/>
        </g>
    </g>
    <g transform="matrix(1,0,0,1,0,-217)">
        <path d="M1577.3,770.5L1577.3,722.7L1555.2,722.7L1555.2,683.9L1458.9,683.9L1458.9,665L1428.8,665L1428.8,684L1420.7,684L1420.7,577.3L1380.6,567.9L1380.6,661.4L1371.9,661.4L1371.9,618.6L1354.5,618.6L1354.5,661.4L1346.4,661.4L1346.4,674.4L1335.7,674.4L1335.7,692.7L1321,692.7L1321,608.2L1317,608.2L1317,595.9L1311.7,595.9L1311.7,525.4L1265.6,525.4L1265.6,578.9L1258.2,578.9L1258.2,570.8L1254.9,570.8L1254.9,555.7L1246.8,555.7L1246.8,553.3L1220.7,553.3L1209.7,553.3L1209.7,525.2L1206,525.2L1206,553.3L1195.3,553.3L1195.3,568L1190,568L1190,582L1185.4,582L1185.4,590.1L1145.9,590.1L1145.9,613.2L1132.5,613.2L1132.5,525.2L1119,525.2L1119,518.6L1087.9,518.6L1087.9,525.2L1071.2,525.2L1071.2,574.6L1043.8,574.6L1043.8,618.7L1003,618.7L1003,640.8L988.3,640.8L988.3,653.5L983.7,653.5L983.7,658.1L939.6,658.1L939.6,653.5L904.9,653.5L904.9,684L894.8,684L894.8,648.2L855.3,648.2L855.3,600.8L848.7,600.8L848.7,590.1L848.7,582L832.7,582L832.7,590.1L816,590.1L816,600.8L810,600.8L810,648.2L795,648.2L795,596L753.9,596L753.9,661.6L730.8,661.6L730.8,670.3L721.4,670.3L721.4,665.8L707.4,665.8L707.4,631.2L645.3,631.2L645.3,570.6L603.2,570.6L603.2,653.5L567.2,653.5L567.2,615.3L567.2,596L525.7,596L525.7,603.8L515.6,615.5L515.6,661.6L506.9,661.6L506.9,695.7L481.5,695.7L481.5,674.6L481.5,661.6L450.4,661.6L450.4,674.6L428,674.6L428,702.3L414,702.3L414,740.5L396,740.5L375.3,740.5L375.3,718.4L367.3,718.4C365.6,698.7 336.9,666.3 336.9,666.3L333.6,666.3L333.6,653.6L329.6,653.6L329.6,642.9L314.2,642.9L314.2,653.6L309,653.6L309,675.7L305.7,675.7L305.7,721.8L296.3,721.8L296.3,711L267.5,711L267.5,721.7L259.4,721.7L259.4,740.4L247.3,740.4L247.3,704L238,704L238,695.7L225.3,695.7L225.3,704L216.6,704L216.6,695.7L190.5,695.7L190.5,731.9C180.8,726.5 169.6,722.1 157.1,719L157.1,702.3L135.8,702.3L135.8,697L125.1,697L125.1,702.3L114.4,702.3L114.4,713.7C113.9,713.7 113.5,713.7 112.9,713.7C106.3,713.7 99.9,714.1 93.7,714.6L93.7,702.3L74.2,702.3L74.2,697L62.8,697L62.8,702.3L50.1,702.3L50.1,724.8C24,735.2 5.8,751.6 2,770.5L-0.7,770.5L-0.7,812L1589.3,812L1589.3,770.5L1577.3,770.5Z" style="fill-rule:nonzero;"/>
    </g>
</svg>
