<?xml version="1.0" encoding="UTF-8" standalone="no"?>
<!DOCTYPE svg PUBLIC "-//W3C//DTD SVG 1.1//EN" "http://www.w3.org/Graphics/SVG/1.1/DTD/svg11.dtd">
<svg width="100%" height="100%" viewBox="0 0 200 200" version="1.1" xmlns="http://www.w3.org/2000/svg" xmlns:xlink="http://www.w3.org/1999/xlink" xml:space="preserve" xmlns:serif="http://www.serif.com/" style="fill-rule:evenodd;clip-rule:evenodd;stroke-linejoin:round;stroke-miterlimit:1.41421;">
    <g transform="matrix(1.03019,0,0,1.03019,-3.01904,-3.01663)">
        <path d="M65.079,15.617C76.519,10.878 82.406,2.855 100,2.855C117.595,2.855 123.482,10.878 134.921,15.617C138.235,16.989 141.414,17.837 144.561,18.652C152.278,20.651 159.801,22.448 168.639,31.286C181.08,43.727 179.569,53.563 184.308,65.003C189.046,76.443 197.07,82.33 197.07,99.924C197.07,117.519 187.654,132.13 184.308,134.846C184.754,139.132 181.08,156.122 168.639,168.563C156.197,181.004 146.361,179.493 134.921,184.232C123.482,188.97 117.595,196.994 100,196.994C82.406,196.994 76.519,188.97 65.079,184.232C53.639,179.493 43.803,181.004 31.362,168.563C18.92,156.122 20.431,146.285 15.693,134.846C10.954,123.406 2.931,117.519 2.931,99.924C2.931,82.33 10.954,76.443 15.693,65.003C20.431,53.563 18.92,43.727 31.362,31.286C43.803,18.844 53.639,20.355 65.079,15.617ZM180.429,136.784C180.256,143.954 177.9,150.98 174.127,157.18C168.276,166.792 158.1,172.784 149.267,175.362C146.603,176.14 143.881,176.717 141.134,177.123L140.937,177.152L140.44,176.823L140.777,176.332C148.96,174.286 156.773,170.821 163.261,165.207C168.304,160.843 172.454,155.697 175.432,149.631C177.412,145.599 178.95,141.308 179.575,136.877L180.045,136.335C180.173,136.485 180.301,136.634 180.429,136.784ZM82.023,169.094C42.387,157.518 16.849,107.832 37.131,67.343C48.402,44.845 73.31,29.418 98.881,29.03C117.878,28.741 136.941,36.714 150.058,50.214C151.262,51.453 151.393,52.091 152.159,52.901C166.491,68.223 173.665,89.882 170.568,110.86C167.444,132.02 154.45,151.597 135.848,162.294C120.025,171.392 100.761,173.98 82.834,169.323C82.563,169.247 82.293,169.171 82.023,169.094ZM101.998,34.253C89.544,34.318 77.162,37.618 66.637,44.06C56.337,50.365 47.893,59.505 42.31,70.335C35.891,82.789 33.017,97.047 34.743,110.893C36.167,122.324 43.097,136.436 52.508,146.507C56.654,150.944 61.397,154.82 66.575,157.991C67.919,158.814 69.292,159.59 70.69,160.316C101.428,176.276 144.626,163.169 160.931,131.201C173.574,106.413 169.752,74.311 149.558,53.257C149.558,53.257 147.324,51.572 145.6,50.121C133.82,40.209 118.557,34.494 103.099,34.259C102.732,34.255 102.365,34.253 101.998,34.253ZM111.071,45.458C121.118,45.527 130.246,52.82 134.79,61.821C138.125,68.427 139.682,75.846 140.037,83.281C140.079,84.159 140.077,84.414 140.083,84.821C140.181,91.332 139.31,97.796 137.726,103.973L137.676,104.167C133.411,118.774 124.942,132.288 113.218,141.316C106.871,146.203 99.268,149.793 91.387,149.787C88.603,149.785 85.803,149.375 83.183,148.426C76.563,146.03 71.185,140.819 67.725,134.062C61.891,122.668 61.386,109.038 63.5,96.287C63.532,96.108 63.564,95.93 63.597,95.751C64.57,90.545 66.036,85.464 68.01,80.482C69.049,77.859 70.343,75.346 71.711,72.877C71.766,72.779 71.766,72.779 71.822,72.682C73.489,69.818 75.338,67.063 77.423,64.494C82.275,58.513 88.821,53.332 96.697,51.932C101.058,51.157 105.807,52.22 108.813,55.485C114.372,61.523 115.233,71.249 115.038,79.022C115.038,79.022 114.484,80.372 114.484,80.372C114.484,80.372 113.214,80.97 113.214,80.97L111.923,80.46L111.271,79.155C110.715,73.725 109.516,68.192 106.932,63.545C105.54,61.042 103.474,58.476 100.387,58.931C93.326,59.971 87.582,66.246 83.757,72.436C78.128,81.545 74.57,92.334 72.687,101.007C70.397,111.558 69.916,122.837 74.7,132.874C76.799,137.278 80.248,141.093 84.926,142.882C86.458,143.459 87.223,143.522 88.285,143.653C88.943,143.735 89.605,143.778 90.268,143.784C98.014,143.862 105.11,138.85 110.514,133.171C115.386,128.05 119.222,121.993 122.168,115.553C127.025,105.324 130.013,94.618 130.593,84.364C131.096,75.458 130.08,66.321 124.87,58.761C122.469,55.276 119.027,52.633 115.049,51.056C112.211,49.93 109.081,49.546 106.077,50.261C106.077,50.261 104.624,50.074 104.624,50.074L103.717,49.006L103.874,47.619L104.972,46.658C106.93,45.933 108.999,45.457 111.071,45.458ZM19.964,71.888C19.388,73.067 18.782,74.232 18.175,75.395C18.175,75.395 17.241,77.159 16.637,78.315C14.944,81.576 13.291,84.939 12.052,88.333C12.052,88.333 11.187,90.535 10.837,91.395C10.274,92.796 9.753,94.218 9.334,95.65L8.867,96.114L8.447,95.65C8.05,93.917 8.109,93.402 8.185,91.845C8.232,90.9 8.407,89.956 8.622,89.023C8.634,88.972 9.15,87.314 9.15,87.314C11.492,81.418 15.712,76.461 19.156,71.519L19.808,71.288C19.86,71.488 19.912,71.688 19.964,71.888ZM56.673,22.384L57.121,23.03L56.941,23.766L56.273,24.286C54.616,24.878 52.179,26.596 50.236,27.889C45.177,31.289 40.062,34.752 35.351,38.846C32.025,41.737 29.409,45.511 28.027,49.688L27.469,50.414C27.469,50.414 26.706,50.52 26.657,50.506L26.033,49.992L25.932,49.173C26.909,45.479 28.802,42.066 31.082,38.97C31.365,38.59 32.327,37.246 32.872,36.532C33.818,35.306 34.824,34.129 35.878,32.997C35.878,32.997 36.879,31.985 37.732,31.195C37.732,31.195 38.989,30.148 39.726,29.614C40.284,29.21 40.85,28.815 41.421,28.428C43.148,27.258 44.95,26.204 46.826,25.242C49.55,23.845 52.737,22.45 55.858,22.174C55.858,22.174 56.346,22.299 56.673,22.384ZM88.786,8.68L88.537,9.413C88.196,9.618 87.711,9.912 87.711,9.912L87.121,10.278C86.751,10.522 86.267,10.894 86.267,10.894L85.838,11.269L85.057,11.896L84.625,12.13L84.109,12.37C83.855,12.489 83.492,12.63 83.492,12.63L82.68,12.892C81.724,13.106 81.682,13.107 81.292,13.189L80.536,12.976L80.755,12.246C81.324,11.673 81.064,11.697 82.491,10.715L83.06,10.356L83.659,10.019C84.012,9.844 84.312,9.747 84.431,9.708L84.972,9.572L86.195,9.227C86.195,9.227 87.156,8.836 88.045,8.455C88.292,8.53 88.539,8.605 88.786,8.68Z"/>
    </g>
</svg>
