<svg xmlns="http://www.w3.org/2000/svg" width="1920" height="1080"><path d="M591,-237L657,-227L936,-210Z" fill="#ffc5d0" stroke="#ffc5d0" stroke-width="1.51"/><path d="M488,1294L-60,1313L983,1309Z" fill="#a55e94" stroke="#a55e94" stroke-width="1.51"/><path d="M591,-237L936,-210L1419,-187Z" fill="#ffb0c7" stroke="#ffb0c7" stroke-width="1.51"/><path d="M1470,1263L1375,1283L1825,1285Z" fill="#820076" stroke="#820076" stroke-width="1.51"/><path d="M1375,1283L1299,1300L1825,1285Z" fill="#850478" stroke="#850478" stroke-width="1.51"/><path d="M1419,-187L1734,-172L2094,-160Z" fill="#c986b2" stroke="#c986b2" stroke-width="1.51"/><path d="M591,-237L1419,-187L2094,-160Z" fill="#eb97bd" stroke="#eb97bd" stroke-width="1.51"/><path d="M1734,-172L1978,-161L2094,-160Z" fill="#b87fae" stroke="#b87fae" stroke-width="1.51"/><path d="M1908,573L1938,691L2109,516Z" fill="#aa3188" stroke="#aa3188" stroke-width="1.51"/><path d="M2052,201L2037,316L2115,334Z" fill="#a95a93" stroke="#a95a93" stroke-width="1.51"/><path d="M2059,102L2052,201L2115,334Z" fill="#aa6195" stroke="#aa6195" stroke-width="1.51"/><path d="M2080,856L2108,983L2135,701Z" fill="#8a0b7b" stroke="#8a0b7b" stroke-width="1.51"/><path d="M2076,769L2080,856L2135,701Z" fill="#931480" stroke="#931480" stroke-width="1.51"/><path d="M2109,516L1938,691L2135,701Z" fill="#a12a85" stroke="#a12a85" stroke-width="1.51"/><path d="M2108,983L2109,1096L2135,701Z" fill="#800075" stroke="#800075" stroke-width="1.51"/><path d="M2115,334L2109,435L2135,701Z" fill="#a43d89" stroke="#a43d89" stroke-width="1.51"/><path d="M2109,435L2109,516L2135,701Z" fill="#a33486" stroke="#a33486" stroke-width="1.51"/><path d="M2014,6L2059,102L2145,-29Z" fill="#ab70a0" stroke="#ab70a0" stroke-width="1.51"/><path d="M2094,-160L1996,-108L2145,-29Z" fill="#ab77a8" stroke="#ab77a8" stroke-width="1.51"/><path d="M1996,-108L2014,6L2145,-29Z" fill="#ad75a6" stroke="#ad75a6" stroke-width="1.51"/><path d="M2059,102L2115,334L2145,-29Z" fill="#a76797" stroke="#a76797" stroke-width="1.51"/><path d="M2115,334L2135,701L2145,-29Z" fill="#a45391" stroke="#a45391" stroke-width="1.51"/><path d="M1675,1245L1470,1263L1825,1285Z" fill="#7a0075" stroke="#7a0075" stroke-width="1.51"/><path d="M2108,983L2005,994L2109,1096Z" fill="#760075" stroke="#760075" stroke-width="1.51"/><path d="M1938,691L2076,769L2135,701Z" fill="#9d1c84" stroke="#9d1c84" stroke-width="1.51"/><path d="M1938,691L1955,737L2076,769Z" fill="#a11b84" stroke="#a11b84" stroke-width="1.51"/><path d="M2080,856L2005,994L2108,983Z" fill="#820076" stroke="#820076" stroke-width="1.51"/><path d="M1939,1139L2071,1234L2109,1096Z" fill="#680072" stroke="#680072" stroke-width="1.51"/><path d="M2109,435L1933,504L2109,516Z" fill="#a9408b" stroke="#a9408b" stroke-width="1.51"/><path d="M1933,504L1908,573L2109,516Z" fill="#ae398a" stroke="#ae398a" stroke-width="1.51"/><path d="M2037,316L2109,435L2115,334Z" fill="#a75190" stroke="#a75190" stroke-width="1.51"/><path d="M2005,994L1939,1139L2109,1096Z" fill="#740075" stroke="#740075" stroke-width="1.51"/><path d="M2037,316L1934,429L2109,435Z" fill="#ac4e90" stroke="#ac4e90" stroke-width="1.51"/><path d="M1934,429L1933,504L2109,435Z" fill="#ae468e" stroke="#ae468e" stroke-width="1.51"/><path d="M1933,953L2005,994L2080,856Z" fill="#880078" stroke="#880078" stroke-width="1.51"/><path d="M1978,-161L1996,-108L2094,-160Z" fill="#b07cab" stroke="#b07cab" stroke-width="1.51"/><path d="M1981,165L2052,201L2059,102Z" fill="#ae6898" stroke="#ae6898" stroke-width="1.51"/><path d="M1939,1139L2015,1277L2071,1234Z" fill="#630071" stroke="#630071" stroke-width="1.51"/><path d="M2076,769L1955,737L2080,856Z" fill="#971480" stroke="#971480" stroke-width="1.51"/><path d="M1955,737L1899,780L2080,856Z" fill="#9b1481" stroke="#9b1481" stroke-width="1.51"/><path d="M1899,780L1933,953L2080,856Z" fill="#93097d" stroke="#93097d" stroke-width="1.51"/><path d="M1419,-187L1626,-153L1734,-172Z" fill="#d78ab3" stroke="#d78ab3" stroke-width="1.51"/><path d="M1981,165L2037,316L2052,201Z" fill="#ae6196" stroke="#ae6196" stroke-width="1.51"/><path d="M2014,6L1981,165L2059,102Z" fill="#af6d9d" stroke="#af6d9d" stroke-width="1.51"/><path d="M1734,-172L1869,-123L1978,-161Z" fill="#be81af" stroke="#be81af" stroke-width="1.51"/><path d="M1981,165L1860,251L2037,316Z" fill="#b36197" stroke="#b36197" stroke-width="1.51"/><path d="M1835,57L1981,165L2014,6Z" fill="#b6709f" stroke="#b6709f" stroke-width="1.51"/><path d="M1860,251L1934,429L2037,316Z" fill="#b35995" stroke="#b35995" stroke-width="1.51"/><path d="M1879,179L1860,251L1981,165Z" fill="#b86799" stroke="#b86799" stroke-width="1.51"/><path d="M1869,-123L1829,-25L1996,-108Z" fill="#bb7cab" stroke="#bb7cab" stroke-width="1.51"/><path d="M1933,953L1939,1139L2005,994Z" fill="#7f0077" stroke="#7f0077" stroke-width="1.51"/><path d="M1996,-108L1829,-25L2014,6Z" fill="#b678a8" stroke="#b678a8" stroke-width="1.51"/><path d="M1939,1139L1825,1285L2015,1277Z" fill="#670072" stroke="#670072" stroke-width="1.51"/><path d="M1829,-25L1835,57L2014,6Z" fill="#ba76a5" stroke="#ba76a5" stroke-width="1.51"/><path d="M1933,953L1812,1059L1939,1139Z" fill="#810178" stroke="#810178" stroke-width="1.51"/><path d="M1835,57L1879,179L1981,165Z" fill="#b96d9c" stroke="#b96d9c" stroke-width="1.51"/><path d="M1978,-161L1869,-123L1996,-108Z" fill="#b67dac" stroke="#b67dac" stroke-width="1.51"/><path d="M1899,780L1807,902L1933,953Z" fill="#99097e" stroke="#99097e" stroke-width="1.51"/><path d="M1860,251L1852,423L1934,429Z" fill="#b85595" stroke="#b85595" stroke-width="1.51"/><path d="M1816,1132L1786,1171L1825,1285Z" fill="#760075" stroke="#760075" stroke-width="1.51"/><path d="M1908,573L1855,694L1938,691Z" fill="#ad2a88" stroke="#ad2a88" stroke-width="1.51"/><path d="M1812,1059L1816,1132L1939,1139Z" fill="#7d0177" stroke="#7d0177" stroke-width="1.51"/><path d="M1816,1132L1825,1285L1939,1139Z" fill="#730075" stroke="#730075" stroke-width="1.51"/><path d="M1938,691L1899,780L1955,737Z" fill="#a61b85" stroke="#a61b85" stroke-width="1.51"/><path d="M1790,1016L1812,1059L1933,953Z" fill="#8b0179" stroke="#8b0179" stroke-width="1.51"/><path d="M1852,423L1933,504L1934,429Z" fill="#b54890" stroke="#b54890" stroke-width="1.51"/><path d="M1855,694L1899,780L1938,691Z" fill="#a91e86" stroke="#a91e86" stroke-width="1.51"/><path d="M1807,902L1790,1016L1933,953Z" fill="#92017a" stroke="#92017a" stroke-width="1.51"/><path d="M1852,423L1908,573L1933,504Z" fill="#b5418d" stroke="#b5418d" stroke-width="1.51"/><path d="M1775,386L1852,423L1860,251Z" fill="#bc5996" stroke="#bc5996" stroke-width="1.51"/><path d="M1774,758L1807,902L1899,780Z" fill="#a51383" stroke="#a51383" stroke-width="1.51"/><path d="M1728,595L1855,694L1908,573Z" fill="#b5308b" stroke="#b5308b" stroke-width="1.51"/><path d="M1852,423L1728,595L1908,573Z" fill="#ba3d8d" stroke="#ba3d8d" stroke-width="1.51"/><path d="M1855,694L1774,758L1899,780Z" fill="#ac1b86" stroke="#ac1b86" stroke-width="1.51"/><path d="M1786,1171L1758,1208L1825,1285Z" fill="#740075" stroke="#740075" stroke-width="1.51"/><path d="M1727,290L1775,386L1860,251Z" fill="#c15f98" stroke="#c15f98" stroke-width="1.51"/><path d="M1767,190L1860,251L1879,179Z" fill="#be689b" stroke="#be689b" stroke-width="1.51"/><path d="M1835,57L1767,190L1879,179Z" fill="#bf6f9d" stroke="#bf6f9d" stroke-width="1.51"/><path d="M1723,102L1767,190L1835,57Z" fill="#c4729f" stroke="#c4729f" stroke-width="1.51"/><path d="M1775,386L1728,595L1852,423Z" fill="#c04991" stroke="#c04991" stroke-width="1.51"/><path d="M1734,-172L1829,-25L1869,-123Z" fill="#c380ad" stroke="#c380ad" stroke-width="1.51"/><path d="M936,-210L1194,-152L1419,-187Z" fill="#f6a0c3" stroke="#f6a0c3" stroke-width="1.51"/><path d="M1767,190L1727,290L1860,251Z" fill="#c2669a" stroke="#c2669a" stroke-width="1.51"/><path d="M1750,931L1790,1016L1807,902Z" fill="#99017b" stroke="#99017b" stroke-width="1.51"/><path d="M1691,675L1774,758L1855,694Z" fill="#b52288" stroke="#b52288" stroke-width="1.51"/><path d="M1728,595L1691,675L1855,694Z" fill="#b92c8a" stroke="#b92c8a" stroke-width="1.51"/><path d="M1734,-172L1683,-36L1829,-25Z" fill="#c880ad" stroke="#c880ad" stroke-width="1.51"/><path d="M1683,-36L1723,102L1829,-25Z" fill="#c87aa7" stroke="#c87aa7" stroke-width="1.51"/><path d="M1829,-25L1723,102L1835,57Z" fill="#c377a4" stroke="#c377a4" stroke-width="1.51"/><path d="M1774,758L1750,931L1807,902Z" fill="#a30c80" stroke="#a30c80" stroke-width="1.51"/><path d="M1610,425L1728,595L1775,386Z" fill="#c74992" stroke="#c74992" stroke-width="1.51"/><path d="M1758,1208L1675,1245L1825,1285Z" fill="#750075" stroke="#750075" stroke-width="1.51"/><path d="M1643,1163L1786,1171L1812,1059Z" fill="#840179" stroke="#840179" stroke-width="1.51"/><path d="M1663,1008L1643,1163L1812,1059Z" fill="#8e007a" stroke="#8e007a" stroke-width="1.51"/><path d="M1812,1059L1786,1171L1816,1132Z" fill="#800178" stroke="#800178" stroke-width="1.51"/><path d="M1790,1016L1663,1008L1812,1059Z" fill="#90017a" stroke="#90017a" stroke-width="1.51"/><path d="M1610,425L1632,583L1728,595Z" fill="#ca3f8f" stroke="#ca3f8f" stroke-width="1.51"/><path d="M1645,931L1750,931L1774,758Z" fill="#a60b80" stroke="#a60b80" stroke-width="1.51"/><path d="M1578,828L1645,931L1774,758Z" fill="#b01183" stroke="#b01183" stroke-width="1.51"/><path d="M1643,1163L1758,1208L1786,1171Z" fill="#7f0077" stroke="#7f0077" stroke-width="1.51"/><path d="M1750,931L1663,1008L1790,1016Z" fill="#98017b" stroke="#98017b" stroke-width="1.51"/><path d="M1691,675L1578,828L1774,758Z" fill="#b81c88" stroke="#b81c88" stroke-width="1.51"/><path d="M1727,290L1610,425L1775,386Z" fill="#c85997" stroke="#c85997" stroke-width="1.51"/><path d="M1590,181L1727,290L1767,190Z" fill="#cb6a9c" stroke="#cb6a9c" stroke-width="1.51"/><path d="M1723,102L1590,181L1767,190Z" fill="#cb719e" stroke="#cb719e" stroke-width="1.51"/><path d="M1626,-153L1638,-54L1683,-36Z" fill="#d183ae" stroke="#d183ae" stroke-width="1.51"/><path d="M1626,-153L1683,-36L1734,-172Z" fill="#cf85af" stroke="#cf85af" stroke-width="1.51"/><path d="M1643,1163L1675,1245L1758,1208Z" fill="#7f0077" stroke="#7f0077" stroke-width="1.51"/><path d="M1683,-36L1609,86L1723,102Z" fill="#ce7aa5" stroke="#ce7aa5" stroke-width="1.51"/><path d="M1645,931L1663,1008L1750,931Z" fill="#a0007c" stroke="#a0007c" stroke-width="1.51"/><path d="M1609,86L1590,181L1723,102Z" fill="#d075a0" stroke="#d075a0" stroke-width="1.51"/><path d="M1566,326L1610,425L1727,290Z" fill="#ce5e98" stroke="#ce5e98" stroke-width="1.51"/><path d="M1648,644L1691,675L1728,595Z" fill="#c12f8b" stroke="#c12f8b" stroke-width="1.51"/><path d="M-53,-200L475,-210L591,-237Z" fill="#feddd9" stroke="#feddd9" stroke-width="1.51"/><path d="M1590,181L1551,225L1727,290Z" fill="#d06b9c" stroke="#d06b9c" stroke-width="1.51"/><path d="M1551,225L1566,326L1727,290Z" fill="#d1669b" stroke="#d1669b" stroke-width="1.51"/><path d="M1632,583L1648,644L1728,595Z" fill="#c4358c" stroke="#c4358c" stroke-width="1.51"/><path d="M1419,-187L1506,-135L1626,-153Z" fill="#de8cb5" stroke="#de8cb5" stroke-width="1.51"/><path d="M1638,-54L1609,86L1683,-36Z" fill="#d17ea9" stroke="#d17ea9" stroke-width="1.51"/><path d="M1648,644L1578,828L1691,675Z" fill="#c0238a" stroke="#c0238a" stroke-width="1.51"/><path d="M1511,1166L1643,1163L1663,1008Z" fill="#92017a" stroke="#92017a" stroke-width="1.51"/><path d="M1610,425L1535,445L1632,583Z" fill="#d04a92" stroke="#d04a92" stroke-width="1.51"/><path d="M1643,1163L1511,1166L1675,1245Z" fill="#880078" stroke="#880078" stroke-width="1.51"/><path d="M1511,1166L1470,1263L1675,1245Z" fill="#880078" stroke="#880078" stroke-width="1.51"/><path d="M1535,445L1514,567L1632,583Z" fill="#d24290" stroke="#d24290" stroke-width="1.51"/><path d="M1485,629L1578,828L1648,644Z" fill="#c7278b" stroke="#c7278b" stroke-width="1.51"/><path d="M1463,982L1511,1166L1663,1008Z" fill="#9f037d" stroke="#9f037d" stroke-width="1.51"/><path d="M1645,931L1463,982L1663,1008Z" fill="#a6017d" stroke="#a6017d" stroke-width="1.51"/><path d="M-53,-200L318,-187L475,-210Z" fill="#fee0dc" stroke="#fee0dc" stroke-width="1.51"/><path d="M1485,629L1448,769L1578,828Z" fill="#c9238c" stroke="#c9238c" stroke-width="1.51"/><path d="M1468,-21L1609,86L1638,-54Z" fill="#d880a9" stroke="#d880a9" stroke-width="1.51"/><path d="M1626,-153L1506,-135L1638,-54Z" fill="#d887b0" stroke="#d887b0" stroke-width="1.51"/><path d="M1578,828L1510,881L1645,931Z" fill="#b20b81" stroke="#b20b81" stroke-width="1.51"/><path d="M1510,881L1463,982L1645,931Z" fill="#af037f" stroke="#af037f" stroke-width="1.51"/><path d="M1632,583L1485,629L1648,644Z" fill="#cb348d" stroke="#cb348d" stroke-width="1.51"/><path d="M1468,-21L1463,30L1609,86Z" fill="#dc80aa" stroke="#dc80aa" stroke-width="1.51"/><path d="M1514,567L1485,629L1632,583Z" fill="#d0398e" stroke="#d0398e" stroke-width="1.51"/><path d="M1506,-135L1468,-21L1638,-54Z" fill="#db86af" stroke="#db86af" stroke-width="1.51"/><path d="M855,1279L488,1294L983,1309Z" fill="#a4488d" stroke="#a4488d" stroke-width="1.51"/><path d="M1463,982L1427,1019L1511,1166Z" fill="#a40c80" stroke="#a40c80" stroke-width="1.51"/><path d="M1551,225L1518,279L1566,326Z" fill="#d7699c" stroke="#d7699c" stroke-width="1.51"/><path d="M1463,30L1426,170L1590,181Z" fill="#dc7aa4" stroke="#dc7aa4" stroke-width="1.51"/><path d="M1463,30L1590,181L1609,86Z" fill="#d879a3" stroke="#d879a3" stroke-width="1.51"/><path d="M1566,326L1535,445L1610,425Z" fill="#d35896" stroke="#d35896" stroke-width="1.51"/><path d="M1426,170L1551,225L1590,181Z" fill="#da739f" stroke="#da739f" stroke-width="1.51"/><path d="M1423,366L1535,445L1566,326Z" fill="#d95e99" stroke="#d95e99" stroke-width="1.51"/><path d="M1448,769L1510,881L1578,828Z" fill="#be1886" stroke="#be1886" stroke-width="1.51"/><path d="M1518,279L1423,366L1566,326Z" fill="#da669c" stroke="#da669c" stroke-width="1.51"/><path d="M1394,482L1514,567L1535,445Z" fill="#d94c95" stroke="#d94c95" stroke-width="1.51"/><path d="M1426,170L1518,279L1551,225Z" fill="#dc71a0" stroke="#dc71a0" stroke-width="1.51"/><path d="M1416,312L1423,366L1518,279Z" fill="#de699f" stroke="#de699f" stroke-width="1.51"/><path d="M1423,366L1394,482L1535,445Z" fill="#dc599a" stroke="#dc599a" stroke-width="1.51"/><path d="M1382,656L1448,769L1485,629Z" fill="#d23191" stroke="#d23191" stroke-width="1.51"/><path d="M1414,-104L1468,-21L1506,-135Z" fill="#e28bb3" stroke="#e28bb3" stroke-width="1.51"/><path d="M1448,769L1403,813L1510,881Z" fill="#c31e89" stroke="#c31e89" stroke-width="1.51"/><path d="M1427,1019L1345,1167L1511,1166Z" fill="#9f0f80" stroke="#9f0f80" stroke-width="1.51"/><path d="M1426,170L1416,312L1518,279Z" fill="#df70a1" stroke="#df70a1" stroke-width="1.51"/><path d="M1394,482L1485,629L1514,567Z" fill="#d84293" stroke="#d84293" stroke-width="1.51"/><path d="M1403,813L1463,982L1510,881Z" fill="#ba1484" stroke="#ba1484" stroke-width="1.51"/><path d="M1345,1167L1470,1263L1511,1166Z" fill="#940b7d" stroke="#940b7d" stroke-width="1.51"/><path d="M1419,-187L1414,-104L1506,-135Z" fill="#e48fb7" stroke="#e48fb7" stroke-width="1.51"/><path d="M1403,813L1317,879L1463,982Z" fill="#bf1a87" stroke="#bf1a87" stroke-width="1.51"/><path d="M1367,22L1426,170L1463,30Z" fill="#e383aa" stroke="#e383aa" stroke-width="1.51"/><path d="M1345,1167L1375,1283L1470,1263Z" fill="#920f7e" stroke="#920f7e" stroke-width="1.51"/><path d="M1394,482L1382,656L1485,629Z" fill="#da4195" stroke="#da4195" stroke-width="1.51"/><path d="M1317,879L1427,1019L1463,982Z" fill="#b61484" stroke="#b61484" stroke-width="1.51"/><path d="M1367,22L1463,30L1468,-21Z" fill="#e386af" stroke="#e386af" stroke-width="1.51"/><path d="M1414,-104L1367,22L1468,-21Z" fill="#e48ab2" stroke="#e48ab2" stroke-width="1.51"/><path d="M-53,-200L111,-181L318,-187Z" fill="#fee5e2" stroke="#fee5e2" stroke-width="1.51"/><path d="M1324,855L1317,879L1403,813Z" fill="#c8238c" stroke="#c8238c" stroke-width="1.51"/><path d="M1269,559L1382,656L1394,482Z" fill="#e24898" stroke="#e24898" stroke-width="1.51"/><path d="M1382,656L1403,813L1448,769Z" fill="#cf2990" stroke="#cf2990" stroke-width="1.51"/><path d="M1269,559L1314,655L1382,656Z" fill="#e04298" stroke="#e04298" stroke-width="1.51"/><path d="M1382,656L1314,655L1403,813Z" fill="#d63293" stroke="#d63293" stroke-width="1.51"/><path d="M1314,655L1255,733L1403,813Z" fill="#d83094" stroke="#d83094" stroke-width="1.51"/><path d="M1296,-104L1367,22L1414,-104Z" fill="#e98fb7" stroke="#e98fb7" stroke-width="1.51"/><path d="M1253,167L1238,341L1416,312Z" fill="#ea75a6" stroke="#ea75a6" stroke-width="1.51"/><path d="M1296,-104L1414,-104L1419,-187Z" fill="#e992b9" stroke="#e992b9" stroke-width="1.51"/><path d="M1194,-152L1296,-104L1419,-187Z" fill="#ef97bd" stroke="#ef97bd" stroke-width="1.51"/><path d="M1270,428L1394,482L1423,366Z" fill="#e35f9e" stroke="#e35f9e" stroke-width="1.51"/><path d="M1367,22L1254,100L1426,170Z" fill="#e984ac" stroke="#e984ac" stroke-width="1.51"/><path d="M1254,100L1253,167L1426,170Z" fill="#eb83aa" stroke="#eb83aa" stroke-width="1.51"/><path d="M1253,167L1416,312L1426,170Z" fill="#e678a5" stroke="#e678a5" stroke-width="1.51"/><path d="M1259,1037L1345,1167L1427,1019Z" fill="#ac1785" stroke="#ac1785" stroke-width="1.51"/><path d="M1317,879L1259,1037L1427,1019Z" fill="#b91a86" stroke="#b91a86" stroke-width="1.51"/><path d="M1416,312L1238,341L1423,366Z" fill="#e56ba2" stroke="#e56ba2" stroke-width="1.51"/><path d="M1238,341L1270,428L1423,366Z" fill="#e868a3" stroke="#e868a3" stroke-width="1.51"/><path d="M1255,733L1324,855L1403,813Z" fill="#cf2990" stroke="#cf2990" stroke-width="1.51"/><path d="M1345,1167L1299,1300L1375,1283Z" fill="#951380" stroke="#951380" stroke-width="1.51"/><path d="M1270,428L1269,559L1394,482Z" fill="#e7569d" stroke="#e7569d" stroke-width="1.51"/><path d="M1259,1037L1245,1144L1345,1167Z" fill="#aa1b86" stroke="#aa1b86" stroke-width="1.51"/><path d="M1194,-152L1206,-134L1296,-104Z" fill="#f39abf" stroke="#f39abf" stroke-width="1.51"/><path d="M1296,-104L1254,100L1367,22Z" fill="#ed8db4" stroke="#ed8db4" stroke-width="1.51"/><path d="M1144,-19L1254,100L1296,-104Z" fill="#f292b7" stroke="#f292b7" stroke-width="1.51"/><path d="M1245,1144L1299,1300L1345,1167Z" fill="#9f1783" stroke="#9f1783" stroke-width="1.51"/><path d="M1107,897L1259,1037L1317,879Z" fill="#c6248b" stroke="#c6248b" stroke-width="1.51"/><path d="M1255,733L1107,897L1317,879Z" fill="#d22e91" stroke="#d22e91" stroke-width="1.51"/><path d="M1255,733L1317,879L1324,855Z" fill="#cf2990" stroke="#cf2990" stroke-width="1.51"/><path d="M1174,191L1238,341L1253,167Z" fill="#ef7faa" stroke="#ef7faa" stroke-width="1.51"/><path d="M1269,559L1176,686L1314,655Z" fill="#e5449a" stroke="#e5449a" stroke-width="1.51"/><path d="M1206,-134L1144,-19L1296,-104Z" fill="#f499bd" stroke="#f499bd" stroke-width="1.51"/><path d="M1176,686L1255,733L1314,655Z" fill="#e13d98" stroke="#e13d98" stroke-width="1.51"/><path d="M1094,770L1107,897L1255,733Z" fill="#d93995" stroke="#d93995" stroke-width="1.51"/><path d="M1177,417L1269,559L1270,428Z" fill="#ec5fa0" stroke="#ec5fa0" stroke-width="1.51"/><path d="M1245,1144L1110,1305L1299,1300Z" fill="#9e1e84" stroke="#9e1e84" stroke-width="1.51"/><path d="M1095,1190L1110,1305L1245,1144Z" fill="#a52686" stroke="#a52686" stroke-width="1.51"/><path d="M1145,595L1176,686L1269,559Z" fill="#e84c9b" stroke="#e84c9b" stroke-width="1.51"/><path d="M828,1272L488,1294L855,1279Z" fill="#a64d8f" stroke="#a64d8f" stroke-width="1.51"/><path d="M1195,345L1177,417L1238,341Z" fill="#ef71a6" stroke="#ef71a6" stroke-width="1.51"/><path d="M1174,191L1195,345L1238,341Z" fill="#f079a9" stroke="#f079a9" stroke-width="1.51"/><path d="M1144,-19L1169,99L1254,100Z" fill="#f390b3" stroke="#f390b3" stroke-width="1.51"/><path d="M1107,897L1087,1059L1259,1037Z" fill="#c12c8b" stroke="#c12c8b" stroke-width="1.51"/><path d="M1177,417L1145,595L1269,559Z" fill="#ed589e" stroke="#ed589e" stroke-width="1.51"/><path d="M1238,341L1177,417L1270,428Z" fill="#ee6ba4" stroke="#ee6ba4" stroke-width="1.51"/><path d="M1087,1059L1245,1144L1259,1037Z" fill="#b42589" stroke="#b42589" stroke-width="1.51"/><path d="M1169,99L1253,167L1254,100Z" fill="#f189ae" stroke="#f189ae" stroke-width="1.51"/><path d="M1176,686L1094,770L1255,733Z" fill="#e13e99" stroke="#e13e99" stroke-width="1.51"/><path d="M1169,99L1174,191L1253,167Z" fill="#f189ad" stroke="#f189ad" stroke-width="1.51"/><path d="M1087,1059L1095,1190L1245,1144Z" fill="#af2a89" stroke="#af2a89" stroke-width="1.51"/><path d="M1037,993L1087,1059L1107,897Z" fill="#c6348c" stroke="#c6348c" stroke-width="1.51"/><path d="M936,-210L970,-138L1194,-152Z" fill="#fcaac4" stroke="#fcaac4" stroke-width="1.51"/><path d="M1174,191L1037,216L1195,345Z" fill="#f383ab" stroke="#f383ab" stroke-width="1.51"/><path d="M1037,216L1021,242L1195,345Z" fill="#f584ab" stroke="#f584ab" stroke-width="1.51"/><path d="M1194,-152L1144,-19L1206,-134Z" fill="#f59cbe" stroke="#f59cbe" stroke-width="1.51"/><path d="M970,-138L1034,-12L1144,-19Z" fill="#faa2be" stroke="#faa2be" stroke-width="1.51"/><path d="M987,430L1009,591L1145,595Z" fill="#f461a0" stroke="#f461a0" stroke-width="1.51"/><path d="M987,430L1145,595L1177,417Z" fill="#f266a2" stroke="#f266a2" stroke-width="1.51"/><path d="M970,-138L1144,-19L1194,-152Z" fill="#f9a1bf" stroke="#f9a1bf" stroke-width="1.51"/><path d="M987,430L1177,417L1195,345Z" fill="#f272a6" stroke="#f272a6" stroke-width="1.51"/><path d="M1021,242L987,430L1195,345Z" fill="#f57ea9" stroke="#f57ea9" stroke-width="1.51"/><path d="M1144,-19L1034,-12L1169,99Z" fill="#f798b7" stroke="#f798b7" stroke-width="1.51"/><path d="M1169,99L1037,216L1174,191Z" fill="#f48cae" stroke="#f48cae" stroke-width="1.51"/><path d="M1145,595L1042,680L1176,686Z" fill="#e94d9b" stroke="#e94d9b" stroke-width="1.51"/><path d="M1042,680L1094,770L1176,686Z" fill="#e6469a" stroke="#e6469a" stroke-width="1.51"/><path d="M995,15L1037,216L1169,99Z" fill="#f795b1" stroke="#f795b1" stroke-width="1.51"/><path d="M1034,-12L995,15L1169,99Z" fill="#f89ab7" stroke="#f89ab7" stroke-width="1.51"/><path d="M1009,591L1042,680L1145,595Z" fill="#ed569e" stroke="#ed569e" stroke-width="1.51"/><path d="M1087,1059L986,1123L1095,1190Z" fill="#b4328b" stroke="#b4328b" stroke-width="1.51"/><path d="M1094,770L987,844L1107,897Z" fill="#d93f94" stroke="#d93f94" stroke-width="1.51"/><path d="M1095,1190L983,1309L1110,1305Z" fill="#a12d86" stroke="#a12d86" stroke-width="1.51"/><path d="M987,844L1037,993L1107,897Z" fill="#d13a8f" stroke="#d13a8f" stroke-width="1.51"/><path d="M106,1269L-60,1313L488,1294Z" fill="#a76e9f" stroke="#a76e9f" stroke-width="1.51"/><path d="M923,294L987,430L1021,242Z" fill="#f986ab" stroke="#f986ab" stroke-width="1.51"/><path d="M1042,680L964,763L1094,770Z" fill="#e74a9b" stroke="#e74a9b" stroke-width="1.51"/><path d="M964,763L987,844L1094,770Z" fill="#e14798" stroke="#e14798" stroke-width="1.51"/><path d="M986,1123L983,1309L1095,1190Z" fill="#ab3389" stroke="#ab3389" stroke-width="1.51"/><path d="M995,15L876,147L1037,216Z" fill="#fb9ab2" stroke="#fb9ab2" stroke-width="1.51"/><path d="M1037,993L986,1123L1087,1059Z" fill="#bd368c" stroke="#bd368c" stroke-width="1.51"/><path d="M970,-138L901,-102L995,15Z" fill="#fdaac0" stroke="#fdaac0" stroke-width="1.51"/><path d="M987,430L900,471L1009,591Z" fill="#f86ea3" stroke="#f86ea3" stroke-width="1.51"/><path d="M970,-138L995,15L1034,-12Z" fill="#fca5be" stroke="#fca5be" stroke-width="1.51"/><path d="M876,147L1021,242L1037,216Z" fill="#fa92ae" stroke="#fa92ae" stroke-width="1.51"/><path d="M854,1057L986,1123L1037,993Z" fill="#c13c8d" stroke="#c13c8d" stroke-width="1.51"/><path d="M987,844L936,874L1037,993Z" fill="#d44091" stroke="#d44091" stroke-width="1.51"/><path d="M1009,591L925,739L1042,680Z" fill="#ed569d" stroke="#ed569d" stroke-width="1.51"/><path d="M925,739L964,763L1042,680Z" fill="#ea509c" stroke="#ea509c" stroke-width="1.51"/><path d="M855,1279L983,1309L986,1123Z" fill="#aa3989" stroke="#aa3989" stroke-width="1.51"/><path d="M936,874L854,1057L1037,993Z" fill="#cc418f" stroke="#cc418f" stroke-width="1.51"/><path d="M854,1057L861,1081L986,1123Z" fill="#bd428f" stroke="#bd428f" stroke-width="1.51"/><path d="M846,59L876,147L995,15Z" fill="#fca3b8" stroke="#fca3b8" stroke-width="1.51"/><path d="M870,603L925,739L1009,591Z" fill="#f05ea0" stroke="#f05ea0" stroke-width="1.51"/><path d="M900,471L873,518L1009,591Z" fill="#f86ea2" stroke="#f86ea2" stroke-width="1.51"/><path d="M876,147L923,294L1021,242Z" fill="#fb93af" stroke="#fb93af" stroke-width="1.51"/><path d="M873,518L870,603L1009,591Z" fill="#f669a2" stroke="#f669a2" stroke-width="1.51"/><path d="M807,1009L854,1057L936,874Z" fill="#cc4a92" stroke="#cc4a92" stroke-width="1.51"/><path d="M861,1081L855,1279L986,1123Z" fill="#b4408d" stroke="#b4408d" stroke-width="1.51"/><path d="M923,294L900,471L987,430Z" fill="#f980a9" stroke="#f980a9" stroke-width="1.51"/><path d="M901,-102L846,59L995,15Z" fill="#fda8be" stroke="#fda8be" stroke-width="1.51"/><path d="M964,763L936,874L987,844Z" fill="#df4996" stroke="#df4996" stroke-width="1.51"/><path d="M815,-46L846,59L901,-102Z" fill="#fdafc1" stroke="#fdafc1" stroke-width="1.51"/><path d="M803,327L900,471L923,294Z" fill="#f98aad" stroke="#f98aad" stroke-width="1.51"/><path d="M925,739L936,874L964,763Z" fill="#e34e99" stroke="#e34e99" stroke-width="1.51"/><path d="M936,-210L901,-102L970,-138Z" fill="#feafc5" stroke="#feafc5" stroke-width="1.51"/><path d="M832,1088L828,1272L855,1279Z" fill="#ae458d" stroke="#ae458d" stroke-width="1.51"/><path d="M832,1088L855,1279L861,1081Z" fill="#b6468f" stroke="#b6468f" stroke-width="1.51"/><path d="M657,-227L794,-140L936,-210Z" fill="#ffbdcc" stroke="#ffbdcc" stroke-width="1.51"/><path d="M876,147L803,327L923,294Z" fill="#fa96b0" stroke="#fa96b0" stroke-width="1.51"/><path d="M736,760L743,855L925,739Z" fill="#e55d9f" stroke="#e55d9f" stroke-width="1.51"/><path d="M925,739L743,855L936,874Z" fill="#e0539a" stroke="#e0539a" stroke-width="1.51"/><path d="M743,855L807,1009L936,874Z" fill="#d65095" stroke="#d65095" stroke-width="1.51"/><path d="M794,-140L901,-102L936,-210Z" fill="#feb4c7" stroke="#feb4c7" stroke-width="1.51"/><path d="M803,327L807,491L900,471Z" fill="#f984aa" stroke="#f984aa" stroke-width="1.51"/><path d="M870,603L737,717L925,739Z" fill="#ef63a2" stroke="#ef63a2" stroke-width="1.51"/><path d="M737,717L736,760L925,739Z" fill="#eb62a2" stroke="#eb62a2" stroke-width="1.51"/><path d="M714,1216L488,1294L828,1272Z" fill="#a95291" stroke="#a95291" stroke-width="1.51"/><path d="M690,229L803,327L876,147Z" fill="#fa9fb3" stroke="#fa9fb3" stroke-width="1.51"/><path d="M794,-140L815,-46L901,-102Z" fill="#feb4c6" stroke="#feb4c6" stroke-width="1.51"/><path d="M807,491L873,518L900,471Z" fill="#f879a7" stroke="#f879a7" stroke-width="1.51"/><path d="M743,855L709,925L807,1009Z" fill="#d45796" stroke="#d45796" stroke-width="1.51"/><path d="M803,327L731,410L807,491Z" fill="#f98cae" stroke="#f98cae" stroke-width="1.51"/><path d="M714,1216L828,1272L832,1088Z" fill="#b14a90" stroke="#b14a90" stroke-width="1.51"/><path d="M807,491L870,603L873,518Z" fill="#f873a4" stroke="#f873a4" stroke-width="1.51"/><path d="M746,113L725,129L876,147Z" fill="#fbaab8" stroke="#fbaab8" stroke-width="1.51"/><path d="M725,129L690,229L876,147Z" fill="#fba8b7" stroke="#fba8b7" stroke-width="1.51"/><path d="M846,59L746,113L876,147Z" fill="#fca8b8" stroke="#fca8b8" stroke-width="1.51"/><path d="M807,491L737,717L870,603Z" fill="#f471a5" stroke="#f471a5" stroke-width="1.51"/><path d="M854,1057L832,1088L861,1081Z" fill="#c04991" stroke="#c04991" stroke-width="1.51"/><path d="M610,637L737,717L807,491Z" fill="#f477a7" stroke="#f477a7" stroke-width="1.51"/><path d="M807,1009L832,1088L854,1057Z" fill="#c34b92" stroke="#c34b92" stroke-width="1.51"/><path d="M815,-46L746,113L846,59Z" fill="#fcaebd" stroke="#fcaebd" stroke-width="1.51"/><path d="M690,229L685,294L803,327Z" fill="#fba0b5" stroke="#fba0b5" stroke-width="1.51"/><path d="M638,-13L746,113L815,-46Z" fill="#fdb5c2" stroke="#fdb5c2" stroke-width="1.51"/><path d="M807,1009L655,1119L832,1088Z" fill="#c05194" stroke="#c05194" stroke-width="1.51"/><path d="M655,1119L714,1216L832,1088Z" fill="#b85193" stroke="#b85193" stroke-width="1.51"/><path d="M695,442L610,637L807,491Z" fill="#f983aa" stroke="#f983aa" stroke-width="1.51"/><path d="M607,488L610,637L695,442Z" fill="#f989ac" stroke="#f989ac" stroke-width="1.51"/><path d="M625,1063L655,1119L807,1009Z" fill="#c25896" stroke="#c25896" stroke-width="1.51"/><path d="M794,-140L638,-13L815,-46Z" fill="#fdbac7" stroke="#fdbac7" stroke-width="1.51"/><path d="M709,925L625,1063L807,1009Z" fill="#cb5997" stroke="#cb5997" stroke-width="1.51"/><path d="M731,410L695,442L807,491Z" fill="#fa8aac" stroke="#fa8aac" stroke-width="1.51"/><path d="M685,294L731,410L803,327Z" fill="#fa98b2" stroke="#fa98b2" stroke-width="1.51"/><path d="M657,-227L638,-13L794,-140Z" fill="#fec2cc" stroke="#fec2cc" stroke-width="1.51"/><path d="M545,-82L638,-13L657,-227Z" fill="#fdc6cd" stroke="#fdc6cd" stroke-width="1.51"/><path d="M638,-13L614,5L725,129Z" fill="#fcbac2" stroke="#fcbac2" stroke-width="1.51"/><path d="M736,760L633,813L743,855Z" fill="#e365a0" stroke="#e365a0" stroke-width="1.51"/><path d="M638,-13L725,129L746,113Z" fill="#fcb4be" stroke="#fcb4be" stroke-width="1.51"/><path d="M633,813L709,925L743,855Z" fill="#dd629c" stroke="#dd629c" stroke-width="1.51"/><path d="M685,294L695,442L731,410Z" fill="#fa97b1" stroke="#fa97b1" stroke-width="1.51"/><path d="M633,813L736,760L737,717Z" fill="#e96aa3" stroke="#e96aa3" stroke-width="1.51"/><path d="M610,637L633,813L737,717Z" fill="#ee71a7" stroke="#ee71a7" stroke-width="1.51"/><path d="M685,294L550,365L695,442Z" fill="#fa9db4" stroke="#fa9db4" stroke-width="1.51"/><path d="M495,173L690,229L725,129Z" fill="#fbb1ba" stroke="#fbb1ba" stroke-width="1.51"/><path d="M614,5L495,173L725,129Z" fill="#fbb9bf" stroke="#fbb9bf" stroke-width="1.51"/><path d="M655,1119L488,1294L714,1216Z" fill="#af5894" stroke="#af5894" stroke-width="1.51"/><path d="M226,1239L106,1269L488,1294Z" fill="#aa6b9b" stroke="#aa6b9b" stroke-width="1.51"/><path d="M506,1005L625,1063L709,925Z" fill="#cc619a" stroke="#cc619a" stroke-width="1.51"/><path d="M552,852L506,1005L709,925Z" fill="#d6669b" stroke="#d6669b" stroke-width="1.51"/><path d="M633,813L552,852L709,925Z" fill="#dd689e" stroke="#dd689e" stroke-width="1.51"/><path d="M610,637L526,705L633,813Z" fill="#ee76a8" stroke="#ee76a8" stroke-width="1.51"/><path d="M591,-237L545,-82L657,-227Z" fill="#feccd1" stroke="#feccd1" stroke-width="1.51"/><path d="M550,365L607,488L695,442Z" fill="#fa97b1" stroke="#fa97b1" stroke-width="1.51"/><path d="M489,57L495,173L614,5Z" fill="#fcbfc2" stroke="#fcbfc2" stroke-width="1.51"/><path d="M511,334L685,294L690,229Z" fill="#fba7b7" stroke="#fba7b7" stroke-width="1.51"/><path d="M495,173L511,334L690,229Z" fill="#fbafb9" stroke="#fbafb9" stroke-width="1.51"/><path d="M511,334L550,365L685,294Z" fill="#fba6b7" stroke="#fba6b7" stroke-width="1.51"/><path d="M607,488L514,585L610,637Z" fill="#f888ab" stroke="#f888ab" stroke-width="1.51"/><path d="M482,1097L488,1294L655,1119Z" fill="#b55f97" stroke="#b55f97" stroke-width="1.51"/><path d="M625,1063L482,1097L655,1119Z" fill="#bf5f98" stroke="#bf5f98" stroke-width="1.51"/><path d="M526,705L552,852L633,813Z" fill="#e772a4" stroke="#e772a4" stroke-width="1.51"/><path d="M545,-82L614,5L638,-13Z" fill="#fdc3c9" stroke="#fdc3c9" stroke-width="1.51"/><path d="M475,-210L545,-82L591,-237Z" fill="#fecfd3" stroke="#fecfd3" stroke-width="1.51"/><path d="M506,1005L482,1097L625,1063Z" fill="#c5659a" stroke="#c5659a" stroke-width="1.51"/><path d="M482,1097L414,1204L488,1294Z" fill="#b26397" stroke="#b26397" stroke-width="1.51"/><path d="M526,705L488,832L552,852Z" fill="#e675a5" stroke="#e675a5" stroke-width="1.51"/><path d="M545,-82L489,57L614,5Z" fill="#fdc4c8" stroke="#fdc4c8" stroke-width="1.51"/><path d="M550,365L409,410L607,488Z" fill="#fa9eb3" stroke="#fa9eb3" stroke-width="1.51"/><path d="M514,585L526,705L610,637Z" fill="#f381ab" stroke="#f381ab" stroke-width="1.51"/><path d="M324,1231L226,1239L488,1294Z" fill="#ab6898" stroke="#ab6898" stroke-width="1.51"/><path d="M409,410L514,585L607,488Z" fill="#fa95b0" stroke="#fa95b0" stroke-width="1.51"/><path d="M488,832L399,863L506,1005Z" fill="#da719f" stroke="#da719f" stroke-width="1.51"/><path d="M495,173L414,204L511,334Z" fill="#fcb6bc" stroke="#fcb6bc" stroke-width="1.51"/><path d="M409,410L368,553L514,585Z" fill="#fb97b0" stroke="#fb97b0" stroke-width="1.51"/><path d="M446,774L488,832L526,705Z" fill="#e979a7" stroke="#e979a7" stroke-width="1.51"/><path d="M441,-21L489,57L545,-82Z" fill="#fcc9ca" stroke="#fcc9ca" stroke-width="1.51"/><path d="M511,334L409,410L550,365Z" fill="#fba7b7" stroke="#fba7b7" stroke-width="1.51"/><path d="M488,832L506,1005L552,852Z" fill="#da6e9e" stroke="#da6e9e" stroke-width="1.51"/><path d="M475,-210L441,-21L545,-82Z" fill="#fdcecf" stroke="#fdcecf" stroke-width="1.51"/><path d="M414,204L395,310L511,334Z" fill="#fcb3bb" stroke="#fcb3bb" stroke-width="1.51"/><path d="M489,57L435,66L495,173Z" fill="#fcc2c2" stroke="#fcc2c2" stroke-width="1.51"/><path d="M353,665L446,774L526,705Z" fill="#f082ab" stroke="#f082ab" stroke-width="1.51"/><path d="M514,585L372,608L526,705Z" fill="#f588ac" stroke="#f588ac" stroke-width="1.51"/><path d="M372,608L353,665L526,705Z" fill="#f389ad" stroke="#f389ad" stroke-width="1.51"/><path d="M318,-187L441,-21L475,-210Z" fill="#fed5d3" stroke="#fed5d3" stroke-width="1.51"/><path d="M394,1070L482,1097L506,1005Z" fill="#c5699b" stroke="#c5699b" stroke-width="1.51"/><path d="M368,553L372,608L514,585Z" fill="#f891af" stroke="#f891af" stroke-width="1.51"/><path d="M344,505L368,553L409,410Z" fill="#fb9eb3" stroke="#fb9eb3" stroke-width="1.51"/><path d="M389,1129L414,1204L482,1097Z" fill="#b9689a" stroke="#b9689a" stroke-width="1.51"/><path d="M399,863L394,1070L506,1005Z" fill="#d06f9d" stroke="#d06f9d" stroke-width="1.51"/><path d="M395,310L409,410L511,334Z" fill="#fbacb9" stroke="#fbacb9" stroke-width="1.51"/><path d="M441,-21L435,66L489,57Z" fill="#fdc7c7" stroke="#fdc7c7" stroke-width="1.51"/><path d="M435,66L414,204L495,173Z" fill="#fcc0bf" stroke="#fcc0bf" stroke-width="1.51"/><path d="M446,774L399,863L488,832Z" fill="#e478a5" stroke="#e478a5" stroke-width="1.51"/><path d="M414,1204L324,1231L488,1294Z" fill="#ad6597" stroke="#ad6597" stroke-width="1.51"/><path d="M394,1070L389,1129L482,1097Z" fill="#bf6a9b" stroke="#bf6a9b" stroke-width="1.51"/><path d="M344,90L414,204L435,66Z" fill="#fcc5c1" stroke="#fcc5c1" stroke-width="1.51"/><path d="M286,1058L394,1070L399,863Z" fill="#ce739e" stroke="#ce739e" stroke-width="1.51"/><path d="M290,860L286,1058L399,863Z" fill="#d877a0" stroke="#d877a0" stroke-width="1.51"/><path d="M344,90L435,66L441,-21Z" fill="#fdcac7" stroke="#fdcac7" stroke-width="1.51"/><path d="M280,-10L344,90L441,-21Z" fill="#fdcec9" stroke="#fdcec9" stroke-width="1.51"/><path d="M318,-187L280,-10L441,-21Z" fill="#fdd5d0" stroke="#fdd5d0" stroke-width="1.51"/><path d="M346,809L399,863L446,774Z" fill="#e57ca6" stroke="#e57ca6" stroke-width="1.51"/><path d="M353,665L346,809L446,774Z" fill="#ed82aa" stroke="#ed82aa" stroke-width="1.51"/><path d="M395,310L337,317L409,410Z" fill="#fbb1ba" stroke="#fbb1ba" stroke-width="1.51"/><path d="M337,317L281,380L409,410Z" fill="#fbb0bb" stroke="#fbb0bb" stroke-width="1.51"/><path d="M389,1129L324,1231L414,1204Z" fill="#b46a99" stroke="#b46a99" stroke-width="1.51"/><path d="M344,90L275,126L414,204Z" fill="#fcc6c1" stroke="#fcc6c1" stroke-width="1.51"/><path d="M337,317L395,310L414,204Z" fill="#fcb7bc" stroke="#fcb7bc" stroke-width="1.51"/><path d="M275,126L337,317L414,204Z" fill="#fcc0bf" stroke="#fcc0bf" stroke-width="1.51"/><path d="M281,380L344,505L409,410Z" fill="#fba8b6" stroke="#fba8b6" stroke-width="1.51"/><path d="M214,913L286,1058L290,860Z" fill="#d67aa3" stroke="#d67aa3" stroke-width="1.51"/><path d="M280,1115L389,1129L394,1070Z" fill="#bf6f9d" stroke="#bf6f9d" stroke-width="1.51"/><path d="M346,809L290,860L399,863Z" fill="#e27da5" stroke="#e27da5" stroke-width="1.51"/><path d="M280,1115L324,1231L389,1129Z" fill="#b86d9c" stroke="#b86d9c" stroke-width="1.51"/><path d="M286,1058L280,1115L394,1070Z" fill="#c2719f" stroke="#c2719f" stroke-width="1.51"/><path d="M214,913L200,992L286,1058Z" fill="#d079a4" stroke="#d079a4" stroke-width="1.51"/><path d="M275,126L203,152L337,317Z" fill="#fdc5c2" stroke="#fdc5c2" stroke-width="1.51"/><path d="M214,688L346,809L353,665Z" fill="#f089af" stroke="#f089af" stroke-width="1.51"/><path d="M214,688L353,665L372,608Z" fill="#f48fb0" stroke="#f48fb0" stroke-width="1.51"/><path d="M368,553L217,503L372,608Z" fill="#fa9ab2" stroke="#fa9ab2" stroke-width="1.51"/><path d="M217,503L214,688L372,608Z" fill="#f897b3" stroke="#f897b3" stroke-width="1.51"/><path d="M214,688L204,795L346,809Z" fill="#ec87ae" stroke="#ec87ae" stroke-width="1.51"/><path d="M344,505L217,503L368,553Z" fill="#fb9eb4" stroke="#fb9eb4" stroke-width="1.51"/><path d="M281,380L217,503L344,505Z" fill="#fca7b8" stroke="#fca7b8" stroke-width="1.51"/><path d="M280,-10L229,46L344,90Z" fill="#fdd0cb" stroke="#fdd0cb" stroke-width="1.51"/><path d="M198,-17L280,-10L318,-187Z" fill="#fdd9d4" stroke="#fdd9d4" stroke-width="1.51"/><path d="M203,152L128,290L337,317Z" fill="#fcc1c3" stroke="#fcc1c3" stroke-width="1.51"/><path d="M229,46L275,126L344,90Z" fill="#fdcdc8" stroke="#fdcdc8" stroke-width="1.51"/><path d="M204,795L290,860L346,809Z" fill="#e582aa" stroke="#e582aa" stroke-width="1.51"/><path d="M131,-142L198,-17L318,-187Z" fill="#feddd9" stroke="#feddd9" stroke-width="1.51"/><path d="M280,1115L226,1239L324,1231Z" fill="#b46e9d" stroke="#b46e9d" stroke-width="1.51"/><path d="M128,290L281,380L337,317Z" fill="#fcb9c0" stroke="#fcb9c0" stroke-width="1.51"/><path d="M111,-181L131,-142L318,-187Z" fill="#fee2de" stroke="#fee2de" stroke-width="1.51"/><path d="M174,1194L226,1239L280,1115Z" fill="#b571a0" stroke="#b571a0" stroke-width="1.51"/><path d="M160,427L217,503L281,380Z" fill="#fcadbd" stroke="#fcadbd" stroke-width="1.51"/><path d="M204,795L214,913L290,860Z" fill="#e181a9" stroke="#e181a9" stroke-width="1.51"/><path d="M128,290L160,427L281,380Z" fill="#fcb7c1" stroke="#fcb7c1" stroke-width="1.51"/><path d="M200,992L280,1115L286,1058Z" fill="#c775a2" stroke="#c775a2" stroke-width="1.51"/><path d="M198,-17L229,46L280,-10Z" fill="#fdd5d0" stroke="#fdd5d0" stroke-width="1.51"/><path d="M200,992L100,1153L280,1115Z" fill="#c276a4" stroke="#c276a4" stroke-width="1.51"/><path d="M100,1153L174,1194L280,1115Z" fill="#b974a3" stroke="#b974a3" stroke-width="1.51"/><path d="M229,46L203,152L275,126Z" fill="#fdcdc9" stroke="#fdcdc9" stroke-width="1.51"/><path d="M109,735L204,795L214,688Z" fill="#f08db4" stroke="#f08db4" stroke-width="1.51"/><path d="M39,613L214,688L217,503Z" fill="#f99cb9" stroke="#f99cb9" stroke-width="1.51"/><path d="M32,588L39,613L217,503Z" fill="#fba3bc" stroke="#fba3bc" stroke-width="1.51"/><path d="M19,117L203,152L229,46Z" fill="#fdd2cd" stroke="#fdd2cd" stroke-width="1.51"/><path d="M198,-17L19,117L229,46Z" fill="#fdd6d1" stroke="#fdd6d1" stroke-width="1.51"/><path d="M204,795L22,913L214,913Z" fill="#df84ad" stroke="#df84ad" stroke-width="1.51"/><path d="M174,1194L106,1269L226,1239Z" fill="#af71a1" stroke="#af71a1" stroke-width="1.51"/><path d="M-3,41L19,117L198,-17Z" fill="#fdd9d5" stroke="#fdd9d5" stroke-width="1.51"/><path d="M29,1068L100,1153L200,992Z" fill="#c57ba8" stroke="#c57ba8" stroke-width="1.51"/><path d="M39,613L109,735L214,688Z" fill="#f596b8" stroke="#f596b8" stroke-width="1.51"/><path d="M160,427L32,588L217,503Z" fill="#fda8bd" stroke="#fda8bd" stroke-width="1.51"/><path d="M109,735L22,913L204,795Z" fill="#e78ab2" stroke="#e78ab2" stroke-width="1.51"/><path d="M22,913L200,992L214,913Z" fill="#d87fa9" stroke="#d87fa9" stroke-width="1.51"/><path d="M15,216L128,290L203,152Z" fill="#fdcaca" stroke="#fdcaca" stroke-width="1.51"/><path d="M19,117L15,216L203,152Z" fill="#fdd1cd" stroke="#fdd1cd" stroke-width="1.51"/><path d="M131,-142L12,-116L198,-17Z" fill="#fee0dd" stroke="#fee0dd" stroke-width="1.51"/><path d="M22,913L29,1068L200,992Z" fill="#d080ab" stroke="#d080ab" stroke-width="1.51"/><path d="M128,290L57,339L160,427Z" fill="#fcbcc6" stroke="#fcbcc6" stroke-width="1.51"/><path d="M12,-116L-3,41L198,-17Z" fill="#fddfdb" stroke="#fddfdb" stroke-width="1.51"/><path d="M51,394L32,588L160,427Z" fill="#fdafc1" stroke="#fdafc1" stroke-width="1.51"/><path d="M57,339L51,394L160,427Z" fill="#fdb9c5" stroke="#fdb9c5" stroke-width="1.51"/><path d="M100,1153L106,1269L174,1194Z" fill="#b274a4" stroke="#b274a4" stroke-width="1.51"/><path d="M-49,805L22,913L109,735Z" fill="#e78eb5" stroke="#e78eb5" stroke-width="1.51"/><path d="M15,216L57,339L128,290Z" fill="#fdc6ca" stroke="#fdc6ca" stroke-width="1.51"/><path d="M111,-181L12,-116L131,-142Z" fill="#fee5e1" stroke="#fee5e1" stroke-width="1.51"/><path d="M-47,-27L-3,41L12,-116Z" fill="#fee2de" stroke="#fee2de" stroke-width="1.51"/><path d="M100,1153L-48,1168L106,1269Z" fill="#b478a8" stroke="#b478a8" stroke-width="1.51"/><path d="M39,613L-49,805L109,735Z" fill="#f296bb" stroke="#f296bb" stroke-width="1.51"/><path d="M-53,-200L12,-116L111,-181Z" fill="#fee8e5" stroke="#fee8e5" stroke-width="1.51"/><path d="M-103,713L-49,805L39,613Z" fill="#f399bd" stroke="#f399bd" stroke-width="1.51"/><path d="M-48,1168L-60,1313L106,1269Z" fill="#ad78a8" stroke="#ad78a8" stroke-width="1.51"/><path d="M-49,805L-14,903L22,913Z" fill="#e18bb3" stroke="#e18bb3" stroke-width="1.51"/><path d="M-111,499L32,588L51,394Z" fill="#feb0c4" stroke="#feb0c4" stroke-width="1.51"/><path d="M29,1068L-48,1168L100,1153Z" fill="#bd7cab" stroke="#bd7cab" stroke-width="1.51"/><path d="M-14,903L-77,1021L22,913Z" fill="#d886af" stroke="#d886af" stroke-width="1.51"/><path d="M22,913L-77,1021L29,1068Z" fill="#d083ae" stroke="#d083ae" stroke-width="1.51"/><path d="M-59,366L-111,499L51,394Z" fill="#febac8" stroke="#febac8" stroke-width="1.51"/><path d="M-59,366L51,394L57,339Z" fill="#fdbfc9" stroke="#fdbfc9" stroke-width="1.51"/><path d="M15,216L-59,366L57,339Z" fill="#fdc6cc" stroke="#fdc6cc" stroke-width="1.51"/><path d="M-116,279L-59,366L15,216Z" fill="#fecace" stroke="#fecace" stroke-width="1.51"/><path d="M32,588L-103,713L39,613Z" fill="#f8a0bf" stroke="#f8a0bf" stroke-width="1.51"/><path d="M-116,166L15,216L19,117Z" fill="#fdd5d1" stroke="#fdd5d1" stroke-width="1.51"/><path d="M-77,1021L-48,1168L29,1068Z" fill="#c480ad" stroke="#c480ad" stroke-width="1.51"/><path d="M-111,499L-103,713L32,588Z" fill="#fba6c1" stroke="#fba6c1" stroke-width="1.51"/><path d="M-3,41L-116,166L19,117Z" fill="#fdd9d5" stroke="#fdd9d5" stroke-width="1.51"/><path d="M-111,499L-174,674L-103,713Z" fill="#f9a6c3" stroke="#f9a6c3" stroke-width="1.51"/><path d="M-116,166L-116,279L15,216Z" fill="#fed1d1" stroke="#fed1d1" stroke-width="1.51"/><path d="M-128,-100L-47,-27L12,-116Z" fill="#fee6e3" stroke="#fee6e3" stroke-width="1.51"/><path d="M-53,-200L-128,-100L12,-116Z" fill="#feeae6" stroke="#feeae6" stroke-width="1.51"/><path d="M-47,-27L-164,86L-3,41Z" fill="#fedfdc" stroke="#fedfdc" stroke-width="1.51"/><path d="M-164,86L-116,166L-3,41Z" fill="#fddcd8" stroke="#fddcd8" stroke-width="1.51"/><path d="M-116,166L-144,229L-116,279Z" fill="#fed3d3" stroke="#fed3d3" stroke-width="1.51"/><path d="M-132,482L-111,499L-59,366Z" fill="#feb9c9" stroke="#feb9c9" stroke-width="1.51"/><path d="M-220,924L-77,1021L-14,903Z" fill="#d889b2" stroke="#d889b2" stroke-width="1.51"/><path d="M-49,805L-169,807L-14,903Z" fill="#e691b8" stroke="#e691b8" stroke-width="1.51"/><path d="M-169,807L-220,924L-14,903Z" fill="#e18fb7" stroke="#e18fb7" stroke-width="1.51"/><path d="M-220,924L-139,1027L-77,1021Z" fill="#d289b3" stroke="#d289b3" stroke-width="1.51"/><path d="M-172,1161L-216,1206L-60,1313Z" fill="#b17ead" stroke="#b17ead" stroke-width="1.51"/><path d="M-192,383L-132,482L-59,366Z" fill="#febfcc" stroke="#febfcc" stroke-width="1.51"/><path d="M-146,-175L-128,-100L-53,-200Z" fill="#feedea" stroke="#feedea" stroke-width="1.51"/><path d="M-103,713L-169,807L-49,805Z" fill="#ed97bd" stroke="#ed97bd" stroke-width="1.51"/><path d="M-77,1021L-139,1027L-48,1168Z" fill="#c683b0" stroke="#c683b0" stroke-width="1.51"/><path d="M-139,1027L-172,1161L-48,1168Z" fill="#bf82b0" stroke="#bf82b0" stroke-width="1.51"/><path d="M-172,1161L-60,1313L-48,1168Z" fill="#b27dac" stroke="#b27dac" stroke-width="1.51"/><path d="M-128,-100L-164,86L-47,-27Z" fill="#fee4e1" stroke="#fee4e1" stroke-width="1.51"/><path d="M-116,279L-192,383L-59,366Z" fill="#fec7cf" stroke="#fec7cf" stroke-width="1.51"/><path d="M-151,265L-192,383L-116,279Z" fill="#ffcbd2" stroke="#ffcbd2" stroke-width="1.51"/><path d="M-144,229L-151,265L-116,279Z" fill="#fed0d2" stroke="#fed0d2" stroke-width="1.51"/><path d="M-132,482L-174,674L-111,499Z" fill="#feadc5" stroke="#feadc5" stroke-width="1.51"/><path d="M-174,674L-169,807L-103,713Z" fill="#f39cc1" stroke="#f39cc1" stroke-width="1.51"/><path d="M-164,86L-144,229L-116,166Z" fill="#fed9d5" stroke="#fed9d5" stroke-width="1.51"/><path d="M-192,383L-164,86L-146,-175Z" fill="#fededb" stroke="#fededb" stroke-width="1.51"/><path d="M-192,383L-174,674L-132,482Z" fill="#ffb3c8" stroke="#ffb3c8" stroke-width="1.51"/><path d="M-146,-175L-164,86L-128,-100Z" fill="#fee9e5" stroke="#fee9e5" stroke-width="1.51"/><path d="M-220,924L-172,1161L-139,1027Z" fill="#cc88b3" stroke="#cc88b3" stroke-width="1.51"/><path d="M-220,924L-216,1206L-172,1161Z" fill="#c386b3" stroke="#c386b3" stroke-width="1.51"/><path d="M-164,86L-151,265L-144,229Z" fill="#fed7d5" stroke="#fed7d5" stroke-width="1.51"/><path d="M-164,86L-192,383L-151,265Z" fill="#fed3d4" stroke="#fed3d4" stroke-width="1.51"/><path d="M-174,674L-220,924L-169,807Z" fill="#eb98be" stroke="#eb98be" stroke-width="1.51"/><path d="M-192,383L-220,924L-174,674Z" fill="#f8a5c5" stroke="#f8a5c5" stroke-width="1.51"/></svg>