<?xml version="1.0" encoding="UTF-8" standalone="no"?>
<!DOCTYPE svg PUBLIC "-//W3C//DTD SVG 1.1//EN" "http://www.w3.org/Graphics/SVG/1.1/DTD/svg11.dtd">
<svg width="100%" height="100%" viewBox="0 0 200 100" version="1.1" xmlns="http://www.w3.org/2000/svg" xmlns:xlink="http://www.w3.org/1999/xlink" xml:space="preserve" xmlns:serif="http://www.serif.com/" style="fill-rule:evenodd;clip-rule:evenodd;stroke-linejoin:round;stroke-miterlimit:1.41421;">
    <path d="M149.638,70.312C149.09,70.047 148.629,69.598 148.349,68.914C147.07,65.789 149.632,61.675 151.443,58.21C151.907,57.323 152.391,56.446 152.88,55.573L152.96,55.431C153.466,54.579 153.982,53.734 154.505,52.892C155.13,51.887 155.768,50.894 156.416,49.905C156.416,49.905 153.288,50.813 150.633,51.526C149.828,51.74 149.019,51.939 148.203,52.11L147.964,52.159C146.824,53.771 145.652,55.371 144.467,56.957C140.8,62.382 136.836,68.059 131.334,70.446C129.403,71.284 126.581,71.582 125.384,69.288C124.347,67.302 125.205,64.74 126.034,62.274C126.349,61.338 126.697,60.413 127.069,59.498C127.069,59.498 125.892,60.709 124.86,61.75C122.355,64.271 120.105,67.076 116.87,68.78C115.722,69.384 114.274,69.702 113.087,68.994C113.087,68.994 111.071,67.143 110.107,64.985C109.569,63.782 109.302,62.483 109.296,61.168C106.076,64.438 102.772,68.24 98.641,70.111C97.965,70.417 93.704,71.663 93.104,68.627C93.104,68.627 93.004,67.352 93.225,66.41C93.96,63.284 98.719,56.051 100.247,53.142C100.247,53.142 88,65.455 83.134,69.169C83.044,69.238 82.952,69.307 82.858,69.372C82.022,69.95 82.72,69.467 82.65,69.513C81.698,70.127 79.033,69.697 80.61,65.849C82.391,61.5 84.616,57.359 86.744,53.142L87.146,52.344C86.447,52.923 85.959,53.321 85.512,53.687C82.284,56.346 79.175,59.141 76.156,62.066C74.234,63.937 72.321,65.844 70.887,68.202C70.887,68.202 70.515,68.705 70.035,68.875C68.439,69.441 67.28,67.002 66.651,64.618C65.549,60.437 66.763,55.864 69.366,52.307C70.992,50.083 72.599,48.643 74.552,46.699C74.552,46.699 77.227,44.387 79.509,44.949C81.791,45.511 79.122,48.027 78.936,48.935L78.398,49.729C77.876,50.241 77.094,50.948 77.094,50.948C74.298,53.407 71.863,55.657 70.887,59.208C70.537,60.48 71.568,62.332 72.259,61.565C75.96,57.489 79.83,53.53 83.925,49.882C85.758,48.25 87.675,46.572 89.843,45.56C91.374,44.845 93.657,45.293 93.72,47.417C93.766,48.973 92.722,50.296 91.901,51.715C91.901,51.715 91.372,52.521 90.997,53.083C88.538,56.766 86.022,60.418 83.72,64.198C83.42,64.694 83.136,65.2 82.858,65.709C89.529,59.539 97.023,51.712 103.82,45.56C105.178,44.33 107.211,47.234 107.104,49.729C106.969,52.866 103.167,54.242 101.419,57.584C100.285,59.76 100.696,59.931 100.247,61.102C99.981,61.796 101.202,63.71 102.348,63.462C103.851,63.136 105.858,61.191 109.262,59.146C109.304,59.12 109.365,59.083 109.365,59.083L109.511,59.052C109.684,58.218 109.96,57.396 110.338,56.606C112.872,51.312 118.266,47.9 123.199,45.265C124.659,44.485 126.149,43.764 127.662,43.094C129.561,42.253 131.519,41.547 133.503,40.924L134.461,40.824L135.355,41.091L136.085,41.672L136.552,42.519L136.65,43.473C136.385,44.362 136.38,44.372 135.803,45.097L134.964,45.562C133.842,45.914 132.728,46.291 131.624,46.694C125.637,48.878 119.487,51.269 115.161,56.01C113.276,58.075 112.635,59.895 114.456,62.274C114.976,62.953 117.551,64.441 118.612,63.472C119.22,62.917 119.812,62.345 120.397,61.766C120.571,61.593 120.745,61.419 120.918,61.244C125.039,57.095 128.765,52.474 132.752,48.149C133.389,47.458 134.652,46.658 135.731,47.346C137.736,48.625 135.275,52.082 133.74,55.034C131.804,58.774 130.534,62.827 131.334,64.32C131.677,64.959 134.041,65.664 136.332,63.349C137.38,62.29 140.974,57.714 141.738,55.891L142.011,55.437C142.227,55.118 142.441,54.799 142.656,54.479C143.094,53.823 143.529,53.166 143.962,52.507C143.962,52.507 141.482,51.878 141.635,49.815C141.775,47.929 143.337,46.561 144.596,45.325C147.312,42.657 150.763,38.829 152.807,41.136C154.217,42.728 152.316,45.581 150.623,48.229L150.594,48.273C153.764,47.332 156.86,46.187 159.941,44.996C159.941,44.996 160.498,44.658 161.401,44.876C162.202,45.218 162.182,45.353 162.342,45.595C162.908,46.447 162.346,47.596 161.998,48.164C158.773,53.46 155.465,58.845 153.069,64.32C152.71,65.141 152.28,66.378 152.28,66.378C155.075,65.135 157.73,63.54 160.256,61.751C163.297,59.063 166.039,55.879 168.901,53.208C169.782,52.386 170.603,51.687 172.071,51.715C174.714,51.866 175.771,55.075 176.459,57.135C178.383,62.905 177.688,69.558 174.084,74.373C166.52,84.48 151.785,87.622 139.072,86.466C104.672,83.153 69.722,78.689 35.028,82.04C30.357,82.491 25.407,82.727 21.482,85.152C21.375,85.218 21.27,85.287 21.167,85.36C21.076,85.424 20.987,85.491 20.901,85.562C19.85,86.422 21.193,88.779 21.193,88.779L21.59,90.246C21.59,90.246 20.909,91.521 20.829,91.583L19.362,91.982L18.037,91.237C16.486,89.245 15.604,86.532 16.95,84.273C19.004,80.824 23.468,80.112 27.047,79.468C51.398,75.091 77.542,78.908 102.071,80.847C114.543,81.833 126.941,82.997 139.503,84.025C150.799,84.889 163.166,81.988 170.29,74.297C174.767,69.463 175.729,61.851 172.263,55.733C171.37,54.156 169.82,57.391 167.903,59.746C163.588,65.001 158.203,69.496 151.489,71.07L149.983,70.804L149.638,70.312ZM43.434,8.536C46.916,8.619 50.932,9.322 52.137,13.319C52.354,14.04 52.433,14.69 52.418,15.174C52.407,15.512 52.261,15.964 52.042,16.223C51.823,16.482 51.402,16.703 51.102,16.729C50.779,16.757 50.366,16.605 50.107,16.39C49.852,16.178 49.706,15.777 49.551,15.441C48.043,12.156 44.578,12.513 42.416,13.091C35.841,14.849 31.674,21.236 28.733,26.572C27.218,29.321 25.962,32.219 24.912,35.114C24.912,35.114 24.364,36.514 23.96,37.675C20.867,46.555 18.701,56.571 22.836,65.329C24.146,68.105 26.354,70.482 29.233,71.636C31.879,72.697 34.968,72.41 37.85,71.389C46.306,68.396 52.597,59.453 56.283,51.826C56.462,51.451 56.48,51.435 56.563,51.269C57.858,48.664 59.021,45.997 59.983,43.275C62.611,35.718 64.201,27.35 61.784,19.382C60.574,15.392 55.698,11.405 54.33,9.643C54.094,9.34 53.701,9.125 53.574,8.808C53.464,8.535 53.439,8.042 53.567,7.744C53.695,7.446 54.068,7.127 54.341,7.019C54.656,6.894 55.46,6.993 55.46,6.993C62.415,9.413 66.874,17.126 68.351,23.891C69.377,28.586 69.47,33.53 68.934,38.219C68.441,42.517 67.274,46.84 65.615,50.983C60.605,63.495 49.3,75.117 36.516,76.763C33.664,77.13 30.742,76.912 28.053,75.935C21.746,73.642 17.326,67.694 15.418,61.09C13.734,55.26 13.638,49.03 14.439,43.037L14.46,42.882C14.999,39.369 15.9,35.952 17.139,32.591L17.182,32.476C20.321,24.879 25.081,17.693 31.849,12.745C35.165,10.32 39.033,8.57 43.119,8.534C43.224,8.533 43.329,8.534 43.434,8.536ZM146.937,47.766C146.427,48.244 145.927,48.735 145.478,49.272L146.049,49.248C146.373,48.73 146.697,48.213 147.016,47.692C146.99,47.717 146.963,47.741 146.937,47.766Z" style="fill-rule:nonzero;"/>
</svg>
